<svg width="343" height="227" viewBox="0 0 343 227" fill="none" xmlns="http://www.w3.org/2000/svg">
<path d="M5.82221 45.6114C22.847 0.449545 121.949 -1.39655 171.658 0.449686V226.684C160.098 227.394 125.06 227.366 77.3904 221.572C17.803 214.329 20.0095 190.825 15.9114 180.67C12.6444 172.575 16.5418 148.432 17.8027 137.213C8.23933 123.579 -9.09211 85.1748 5.82221 45.6114Z" fill="#FFFAE4"/>
<path d="M337.178 45.6114C320.153 0.449545 221.051 -1.39655 171.342 0.449686V226.684C182.902 227.394 217.94 227.366 265.61 221.572C325.197 214.329 322.99 190.825 327.089 180.67C330.356 172.575 326.458 148.432 325.197 137.213C334.761 123.579 352.092 85.1748 337.178 45.6114Z" fill="#FFFAE4"/>
</svg>
