<svg width="383" height="220" viewBox="0 0 383 220" fill="none" xmlns="http://www.w3.org/2000/svg">
<g filter="url(#filter0_d_1317_409)">
<path d="M103.384 151.987H83.6856C83.2958 152.377 83.5232 153.124 83.6856 153.449H84.5209L88.2797 155.885C88.3725 158.043 88.5024 163.487 88.2797 167.997C88.0569 172.508 85.681 174.192 84.5209 174.471C75.1657 167.399 71.2491 173.194 70.4602 176.976C69.9266 179.204 70.6551 183.798 77.8386 184.355C85.0221 184.912 91.2728 179.668 93.5002 176.976C99.7927 183.659 106.563 185.051 109.162 184.912C110.856 184.981 114.647 184.355 116.262 181.292C117.877 178.229 116.935 175.051 116.262 173.844C110.972 167.552 105.055 171.222 102.758 173.844C100.085 173.065 99.4632 169.621 99.4864 167.997V155.885L102.132 153.449H103.384C103.997 152.837 103.64 152.219 103.384 151.987Z" fill="url(#paint0_linear_1317_409)"/>
<path d="M103.384 151.987H83.6856C83.2958 152.377 83.5232 153.124 83.6856 153.449H84.5209L88.2797 155.885C88.3725 158.043 88.5024 163.487 88.2797 167.997C88.0569 172.508 85.681 174.192 84.5209 174.471C75.1657 167.399 71.2491 173.194 70.4602 176.976C69.9266 179.204 70.6551 183.798 77.8386 184.355C85.0221 184.912 91.2728 179.668 93.5002 176.976C99.7927 183.659 106.563 185.051 109.162 184.912C110.856 184.981 114.647 184.355 116.262 181.292C117.877 178.229 116.935 175.051 116.262 173.844C110.972 167.552 105.055 171.222 102.758 173.844C100.085 173.065 99.4632 169.621 99.4864 167.997V155.885L102.132 153.449H103.384C103.997 152.837 103.64 152.219 103.384 151.987Z" fill="url(#paint1_linear_1317_409)"/>
<path d="M103.384 151.987H83.6856C83.2958 152.377 83.5232 153.124 83.6856 153.449H84.5209L88.2797 155.885C88.3725 158.043 88.5024 163.487 88.2797 167.997C88.0569 172.508 85.681 174.192 84.5209 174.471C75.1657 167.399 71.2491 173.194 70.4602 176.976C69.9266 179.204 70.6551 183.798 77.8386 184.355C85.0221 184.912 91.2728 179.668 93.5002 176.976C99.7927 183.659 106.563 185.051 109.162 184.912C110.856 184.981 114.647 184.355 116.262 181.292C117.877 178.229 116.935 175.051 116.262 173.844C110.972 167.552 105.055 171.222 102.758 173.844C100.085 173.065 99.4632 169.621 99.4864 167.997V155.885L102.132 153.449H103.384C103.997 152.837 103.64 152.219 103.384 151.987Z" fill="url(#paint2_linear_1317_409)"/>
<path d="M118.141 201.2V150.178H129.07V161.941H134.499V167.092H129.07V201.2H118.141Z" fill="url(#paint3_linear_1317_409)"/>
<path d="M118.141 201.2V150.178H129.07V161.941H134.499V167.092H129.07V201.2H118.141Z" fill="url(#paint4_linear_1317_409)"/>
<path d="M118.141 201.2V150.178H129.07V161.941H134.499V167.092H129.07V201.2H118.141Z" fill="url(#paint5_linear_1317_409)"/>
<path d="M137.074 155.12V150.178H173.131L169.859 153.449V164.726H146.819V170.781C149.209 169.969 154.741 168.415 157.748 168.693C160.755 168.972 164.523 170.619 166.031 171.408C172.323 172.577 176.17 170.085 177.307 168.693V150.665H187.888V159.296H193.178V163.96H187.888V175.863H177.307V172.522C174.579 174.693 172.133 175.515 171.252 175.654C168.769 176.396 162.397 177.227 156.773 174.61C151.149 171.993 141.297 176.35 137.074 178.856V160.271C137.074 159.602 137.724 159.343 138.049 159.296H159.07V155.12H137.074Z" fill="url(#paint6_linear_1317_409)"/>
<path d="M137.074 155.12V150.178H173.131L169.859 153.449V164.726H146.819V170.781C149.209 169.969 154.741 168.415 157.748 168.693C160.755 168.972 164.523 170.619 166.031 171.408C172.323 172.577 176.17 170.085 177.307 168.693V150.665H187.888V159.296H193.178V163.96H187.888V175.863H177.307V172.522C174.579 174.693 172.133 175.515 171.252 175.654C168.769 176.396 162.397 177.227 156.773 174.61C151.149 171.993 141.297 176.35 137.074 178.856V160.271C137.074 159.602 137.724 159.343 138.049 159.296H159.07V155.12H137.074Z" fill="url(#paint7_linear_1317_409)"/>
<path d="M137.074 155.12V150.178H173.131L169.859 153.449V164.726H146.819V170.781C149.209 169.969 154.741 168.415 157.748 168.693C160.755 168.972 164.523 170.619 166.031 171.408C172.323 172.577 176.17 170.085 177.307 168.693V150.665H187.888V159.296H193.178V163.96H187.888V175.863H177.307V172.522C174.579 174.693 172.133 175.515 171.252 175.654C168.769 176.396 162.397 177.227 156.773 174.61C151.149 171.993 141.297 176.35 137.074 178.856V160.271C137.074 159.602 137.724 159.343 138.049 159.296H159.07V155.12H137.074Z" fill="url(#paint8_linear_1317_409)"/>
<path d="M224.71 165.979H194.361C193.359 166.981 193.943 168.438 194.361 169.041H224.71C225.712 168.039 225.128 166.582 224.71 165.979Z" fill="url(#paint9_linear_1317_409)"/>
<path d="M224.71 165.979H194.361C193.359 166.981 193.943 168.438 194.361 169.041H224.71C225.712 168.039 225.128 166.582 224.71 165.979Z" fill="url(#paint10_linear_1317_409)"/>
<path d="M224.71 165.979H194.361C193.359 166.981 193.943 168.438 194.361 169.041H224.71C225.712 168.039 225.128 166.582 224.71 165.979Z" fill="url(#paint11_linear_1317_409)"/>
<path d="M224.292 172.174H195.753V175.376H217.54V178.995H195.753V186.721C196.366 188.281 197.308 188.856 197.702 188.949H224.292V185.608H202.505V182.127H224.292V172.174Z" fill="url(#paint12_linear_1317_409)"/>
<path d="M224.292 172.174H195.753V175.376H217.54V178.995H195.753V186.721C196.366 188.281 197.308 188.856 197.702 188.949H224.292V185.608H202.505V182.127H224.292V172.174Z" fill="url(#paint13_linear_1317_409)"/>
<path d="M224.292 172.174H195.753V175.376H217.54V178.995H195.753V186.721C196.366 188.281 197.308 188.856 197.702 188.949H224.292V185.608H202.505V182.127H224.292V172.174Z" fill="url(#paint14_linear_1317_409)"/>
<path d="M258.678 150.665H240.998L245.244 154.006C245.29 156.698 245.355 162.637 245.244 164.865C245.133 167.092 242.877 168.252 241.764 168.554C240.65 166.327 238.237 165.584 237.17 165.491C232.492 164.712 230.627 168.786 230.278 170.921C230 172.8 230.988 176.726 237.17 177.394C243.351 178.062 248.376 172.8 250.117 170.085C252.274 173.125 258.08 178.842 264.038 177.394C269.996 175.946 270.094 171.222 269.398 169.041C264.553 162.415 259.537 165.955 257.634 168.554C256.131 167.774 255.291 165.538 255.059 164.517V153.588L258.678 150.665Z" fill="url(#paint15_linear_1317_409)"/>
<path d="M258.678 150.665H240.998L245.244 154.006C245.29 156.698 245.355 162.637 245.244 164.865C245.133 167.092 242.877 168.252 241.764 168.554C240.65 166.327 238.237 165.584 237.17 165.491C232.492 164.712 230.627 168.786 230.278 170.921C230 172.8 230.988 176.726 237.17 177.394C243.351 178.062 248.376 172.8 250.117 170.085C252.274 173.125 258.08 178.842 264.038 177.394C269.996 175.946 270.094 171.222 269.398 169.041C264.553 162.415 259.537 165.955 257.634 168.554C256.131 167.774 255.291 165.538 255.059 164.517V153.588L258.678 150.665Z" fill="url(#paint16_linear_1317_409)"/>
<path d="M258.678 150.665H240.998L245.244 154.006C245.29 156.698 245.355 162.637 245.244 164.865C245.133 167.092 242.877 168.252 241.764 168.554C240.65 166.327 238.237 165.584 237.17 165.491C232.492 164.712 230.627 168.786 230.278 170.921C230 172.8 230.988 176.726 237.17 177.394C243.351 178.062 248.376 172.8 250.117 170.085C252.274 173.125 258.08 178.842 264.038 177.394C269.996 175.946 270.094 171.222 269.398 169.041C264.553 162.415 259.537 165.955 257.634 168.554C256.131 167.774 255.291 165.538 255.059 164.517V153.588L258.678 150.665Z" fill="url(#paint17_linear_1317_409)"/>
<path d="M279.839 150.247H271.138V178.438H279.839V150.247Z" fill="url(#paint18_linear_1317_409)"/>
<path d="M279.839 150.247H271.138V178.438H279.839V150.247Z" fill="url(#paint19_linear_1317_409)"/>
<path d="M279.839 150.247H271.138V178.438H279.839V150.247Z" fill="url(#paint20_linear_1317_409)"/>
<path d="M241.764 180.944H279.839V185.538H251.439V192.29C254.455 191.014 261.852 189.227 267.31 192.29C272.767 195.353 280.813 194.958 284.155 194.378C287.226 193.626 293.333 191.987 294.929 191.041C295.03 190.969 295.127 190.898 295.222 190.828C295.156 190.894 295.057 190.966 294.929 191.041C290.581 194.179 281.075 199.843 275.523 198.972C273.226 198.926 267.532 198.318 263.133 196.258C258.734 194.197 254.107 194.146 252.344 194.378C250.766 194.425 246.845 195.255 243.782 198.207L243.365 183.38L241.764 180.944Z" fill="url(#paint21_linear_1317_409)"/>
<path d="M241.764 180.944H279.839V185.538H251.439V192.29C254.455 191.014 261.852 189.227 267.31 192.29C272.767 195.353 280.813 194.958 284.155 194.378C287.226 193.626 293.333 191.987 294.929 191.041C295.03 190.969 295.127 190.898 295.222 190.828C295.156 190.894 295.057 190.966 294.929 191.041C290.581 194.179 281.075 199.843 275.523 198.972C273.226 198.926 267.532 198.318 263.133 196.258C258.734 194.197 254.107 194.146 252.344 194.378C250.766 194.425 246.845 195.255 243.782 198.207L243.365 183.38L241.764 180.944Z" fill="url(#paint22_linear_1317_409)"/>
<path d="M241.764 180.944H279.839V185.538H251.439V192.29C254.455 191.014 261.852 189.227 267.31 192.29C272.767 195.353 280.813 194.958 284.155 194.378C287.226 193.626 293.333 191.987 294.929 191.041C295.03 190.969 295.127 190.898 295.222 190.828C295.156 190.894 295.057 190.966 294.929 191.041C290.581 194.179 281.075 199.843 275.523 198.972C273.226 198.926 267.532 198.318 263.133 196.258C258.734 194.197 254.107 194.146 252.344 194.378C250.766 194.425 246.845 195.255 243.782 198.207L243.365 183.38L241.764 180.944Z" fill="url(#paint23_linear_1317_409)"/>
<path d="M316.8 151.57H284.99V156.234H308.099C309.269 161.913 308.123 172.197 307.403 176.628H314.991C317.385 173.176 317.195 158.484 316.8 151.57Z" fill="url(#paint24_linear_1317_409)"/>
<path d="M316.8 151.57H284.99V156.234H308.099C309.269 161.913 308.123 172.197 307.403 176.628H314.991C317.385 173.176 317.195 158.484 316.8 151.57Z" fill="url(#paint25_linear_1317_409)"/>
<path d="M316.8 151.57H284.99V156.234H308.099C309.269 161.913 308.123 172.197 307.403 176.628H314.991C317.385 173.176 317.195 158.484 316.8 151.57Z" fill="url(#paint26_linear_1317_409)"/>
<path d="M302.948 169.041H294.526V180.944H283.598V185.538H317.775V180.944L302.948 180.526V169.041Z" fill="url(#paint27_linear_1317_409)"/>
<path d="M302.948 169.041H294.526V180.944H283.598V185.538H317.775V180.944L302.948 180.526V169.041Z" fill="url(#paint28_linear_1317_409)"/>
<path d="M302.948 169.041H294.526V180.944H283.598V185.538H317.775V180.944L302.948 180.526V169.041Z" fill="url(#paint29_linear_1317_409)"/>
<path d="M83.6856 151.987H103.384C103.64 152.219 103.997 152.837 103.384 153.449H102.132L99.4864 155.885V167.997C99.4632 169.621 100.085 173.065 102.758 173.844C105.055 171.222 110.972 167.552 116.262 173.844C116.935 175.051 117.877 178.229 116.262 181.292C114.647 184.355 110.856 184.981 109.162 184.912C106.563 185.051 99.7927 183.659 93.5002 176.976C91.2728 179.668 85.0221 184.912 77.8386 184.355C70.6551 183.798 69.9266 179.204 70.4602 176.976C71.2491 173.194 75.1657 167.399 84.5209 174.471C85.681 174.192 88.0569 172.508 88.2797 167.997C88.5024 163.487 88.3725 158.043 88.2797 155.885L84.5209 153.449H83.6856C83.5232 153.124 83.2958 152.377 83.6856 151.987ZM118.141 150.178V201.2H129.07V167.092H134.499V161.941H129.07V150.178H118.141ZM137.074 150.178V155.12H159.07V159.296H138.049C137.724 159.343 137.074 159.602 137.074 160.271C137.074 160.939 137.074 172.939 137.074 178.856C141.297 176.35 151.149 171.993 156.773 174.61C162.397 177.227 168.769 176.396 171.252 175.654C172.133 175.515 174.579 174.693 177.307 172.522V175.863H187.888V163.96H193.178V159.296H187.888V150.665H177.307V168.693C176.17 170.085 172.323 172.577 166.031 171.408C164.523 170.619 160.755 168.972 157.748 168.693C154.741 168.415 149.209 169.969 146.819 170.781V164.726H169.859V153.449L173.131 150.178H137.074ZM194.361 165.979H224.71C225.128 166.582 225.712 168.039 224.71 169.041H194.361C193.943 168.438 193.359 166.981 194.361 165.979ZM195.753 172.174H224.292V182.127H202.505V185.608H224.292V188.949H197.702C197.308 188.856 196.366 188.281 195.753 186.721V178.995H217.54C217.54 178.554 217.54 177.213 217.54 175.376H195.753V172.174ZM240.998 150.665H258.678L255.059 153.588V164.517C255.291 165.538 256.131 167.774 257.634 168.554C259.537 165.955 264.553 162.415 269.398 169.041C270.094 171.222 269.996 175.946 264.038 177.394C258.08 178.842 252.274 173.125 250.117 170.085C248.376 172.8 243.351 178.062 237.17 177.394C230.988 176.726 230 172.8 230.278 170.921C230.627 168.786 232.492 164.712 237.17 165.491C238.237 165.584 240.65 166.327 241.764 168.554C242.877 168.252 245.133 167.092 245.244 164.865C245.355 162.637 245.29 156.698 245.244 154.006L240.998 150.665ZM271.138 150.247H279.839V178.438H271.138V150.247ZM241.764 180.944H279.839V185.538H251.439V192.29C254.455 191.014 261.852 189.227 267.31 192.29C272.767 195.353 280.813 194.958 284.155 194.378C287.472 193.566 294.331 191.719 295.222 190.828C291.022 193.914 281.203 199.863 275.523 198.972C273.226 198.926 267.532 198.318 263.133 196.258C258.734 194.197 254.107 194.146 252.344 194.378C250.766 194.425 246.845 195.255 243.782 198.207L243.365 183.38L241.764 180.944ZM284.99 151.57H316.8C317.195 158.484 317.385 173.176 314.991 176.628H307.403C308.123 172.197 309.269 161.913 308.099 156.234H284.99V151.57ZM294.526 169.041H302.948V180.526L317.775 180.944V185.538H283.598V180.944H294.526V169.041Z" stroke="black" stroke-width="0.3"/>
<path d="M214.548 128.112L181.763 128.669V131.732H213.712L214.548 128.112Z" fill="#FE6116"/>
<path d="M214.548 128.112L181.763 128.669V131.732H213.712L214.548 128.112Z" fill="url(#paint30_linear_1317_409)"/>
<path d="M191.438 133.611H183.712L181.763 139.876C181.763 141.324 183.062 141.732 183.712 141.755H209.466L210.789 138.066H190.672L191.438 133.611Z" fill="#FE6116"/>
<path d="M191.438 133.611H183.712L181.763 139.876C181.763 141.324 183.062 141.732 183.712 141.755H209.466L210.789 138.066H190.672L191.438 133.611Z" fill="url(#paint31_linear_1317_409)"/>
<path d="M214.548 128.112L181.763 128.669V131.732H213.712L214.548 128.112Z" stroke="black" stroke-width="0.3"/>
<path d="M191.438 133.611H183.712L181.763 139.876C181.763 141.324 183.062 141.732 183.712 141.755H209.466L210.789 138.066H190.672L191.438 133.611Z" stroke="black" stroke-width="0.3"/>
<path fill-rule="evenodd" clip-rule="evenodd" d="M184.638 122.356C184.522 120.588 187.198 117.023 198.827 116.906C210.457 116.789 212.854 120.199 212.599 121.918C212.391 123.589 209.344 126.901 198.827 126.784C188.311 126.667 184.986 123.783 184.638 122.356ZM198.973 119.146C196.77 119.049 192.268 119.428 191.878 121.725C191.489 124.022 196.446 124.466 198.973 124.401C201.268 124.466 205.761 124.022 205.372 121.725C204.982 119.428 200.943 119.049 198.973 119.146Z" fill="#F56234"/>
<path fill-rule="evenodd" clip-rule="evenodd" d="M184.638 122.356C184.522 120.588 187.198 117.023 198.827 116.906C210.457 116.789 212.854 120.199 212.599 121.918C212.391 123.589 209.344 126.901 198.827 126.784C188.311 126.667 184.986 123.783 184.638 122.356ZM198.973 119.146C196.77 119.049 192.268 119.428 191.878 121.725C191.489 124.022 196.446 124.466 198.973 124.401C201.268 124.466 205.761 124.022 205.372 121.725C204.982 119.428 200.943 119.049 198.973 119.146Z" fill="url(#paint32_linear_1317_409)"/>
<path d="M198.827 116.906L198.826 116.756L198.827 116.906ZM184.638 122.356L184.489 122.366L184.489 122.379L184.493 122.391L184.638 122.356ZM212.599 121.918L212.451 121.896L212.45 121.899L212.599 121.918ZM198.827 126.784L198.829 126.634L198.829 126.634L198.827 126.784ZM198.973 119.146L198.966 119.296L198.98 119.296L198.973 119.146ZM198.973 124.401L198.977 124.251L198.969 124.251L198.973 124.401ZM205.372 121.725L205.224 121.75L205.224 121.75L205.372 121.725ZM198.826 116.756C192.999 116.814 189.396 117.737 187.258 118.879C185.123 120.02 184.425 121.399 184.489 122.366L184.788 122.346C184.735 121.545 185.318 120.257 187.399 119.144C189.477 118.033 193.026 117.114 198.829 117.056L198.826 116.756ZM212.748 121.94C212.888 120.992 212.291 119.659 210.239 118.59C208.187 117.521 204.652 116.697 198.826 116.756L198.829 117.056C204.633 116.998 208.111 117.82 210.101 118.856C212.092 119.893 212.565 121.125 212.451 121.896L212.748 121.94ZM198.826 126.934C204.098 126.993 207.514 126.192 209.644 125.156C211.77 124.123 212.635 122.843 212.748 121.937L212.45 121.899C212.355 122.664 211.592 123.875 209.513 124.886C207.439 125.895 204.073 126.692 198.829 126.634L198.826 126.934ZM184.493 122.391C184.589 122.787 184.884 123.26 185.423 123.745C185.963 124.232 186.755 124.738 187.862 125.2C190.074 126.124 193.555 126.876 198.826 126.934L198.829 126.634C193.583 126.576 190.143 125.827 187.977 124.923C186.895 124.471 186.133 123.981 185.624 123.522C185.112 123.061 184.861 122.638 184.784 122.32L184.493 122.391ZM192.026 121.75C192.115 121.227 192.438 120.804 192.927 120.462C193.418 120.12 194.067 119.866 194.783 119.683C196.214 119.318 197.874 119.247 198.966 119.296L198.979 118.996C197.869 118.947 196.177 119.018 194.708 119.392C193.974 119.579 193.287 119.845 192.755 120.216C192.222 120.589 191.836 121.075 191.73 121.7L192.026 121.75ZM198.969 124.251C197.713 124.284 195.857 124.189 194.369 123.804C193.624 123.611 192.986 123.348 192.561 123.005C192.143 122.666 191.94 122.258 192.026 121.75L191.73 121.7C191.622 122.34 191.892 122.849 192.373 123.238C192.847 123.621 193.533 123.897 194.294 124.094C195.819 124.489 197.706 124.584 198.977 124.551L198.969 124.251ZM205.224 121.75C205.311 122.266 205.129 122.675 204.758 123.01C204.381 123.351 203.809 123.612 203.138 123.805C201.797 124.189 200.117 124.284 198.977 124.251L198.968 124.551C200.124 124.584 201.838 124.489 203.22 124.093C203.91 123.895 204.532 123.619 204.96 123.233C205.393 122.84 205.627 122.333 205.52 121.7L205.224 121.75ZM198.98 119.296C199.955 119.248 201.44 119.318 202.724 119.682C204.021 120.049 205.045 120.695 205.224 121.75L205.52 121.7C205.309 120.458 204.119 119.765 202.806 119.393C201.481 119.018 199.961 118.947 198.965 118.996L198.98 119.296ZM198.979 118.996C197.879 118.95 196.201 119.025 194.737 119.401C194.005 119.589 193.317 119.854 192.782 120.224C192.245 120.594 191.851 121.077 191.731 121.696L192.025 121.754C192.126 121.233 192.458 120.812 192.952 120.471C193.448 120.129 194.097 119.875 194.811 119.692C196.238 119.325 197.886 119.251 198.966 119.296L198.979 118.996Z" fill="black"/>
<path fill-rule="evenodd" clip-rule="evenodd" d="M196.175 157.855C196.06 155.365 198.735 150.344 210.365 150.179C221.994 150.015 224.391 154.817 224.136 157.239C223.928 159.592 220.881 164.257 210.365 164.092C199.848 163.928 196.523 159.866 196.175 157.855ZM210.51 153.334C208.307 153.197 203.805 153.732 203.415 156.967C203.026 160.202 207.982 160.828 210.51 160.736C212.805 160.828 217.298 160.202 216.909 156.967C216.519 153.732 212.48 153.197 210.51 153.334Z" fill="url(#paint33_linear_1317_409)"/>
<path fill-rule="evenodd" clip-rule="evenodd" d="M196.175 157.855C196.06 155.365 198.735 150.344 210.365 150.179C221.994 150.015 224.391 154.817 224.136 157.239C223.928 159.592 220.881 164.257 210.365 164.092C199.848 163.928 196.523 159.866 196.175 157.855ZM210.51 153.334C208.307 153.197 203.805 153.732 203.415 156.967C203.026 160.202 207.982 160.828 210.51 160.736C212.805 160.828 217.298 160.202 216.909 156.967C216.519 153.732 212.48 153.197 210.51 153.334Z" fill="url(#paint34_linear_1317_409)"/>
<path d="M210.365 150.179L210.362 150.029L210.365 150.179ZM196.175 157.855L196.026 157.862L196.026 157.872L196.028 157.881L196.175 157.855ZM224.136 157.239L223.987 157.223L223.987 157.225L224.136 157.239ZM210.365 164.092L210.362 164.242L210.365 164.092ZM203.415 156.967L203.564 156.985L203.564 156.985L203.415 156.967ZM210.51 153.334L210.5 153.484L210.51 153.485L210.52 153.484L210.51 153.334ZM210.51 160.736L210.516 160.586L210.504 160.586L210.51 160.736ZM216.909 156.967L216.76 156.985L216.76 156.985L216.909 156.967ZM210.362 150.029C198.701 150.194 195.904 155.243 196.026 157.862L196.325 157.849C196.215 155.488 198.769 150.493 210.367 150.329L210.362 150.029ZM224.285 157.254C224.419 155.985 223.856 154.129 221.796 152.618C219.739 151.109 216.195 149.947 210.362 150.029L210.367 150.329C216.163 150.247 219.633 151.404 221.618 152.86C223.601 154.314 224.108 156.07 223.987 157.223L224.285 157.254ZM210.362 164.242C220.919 164.407 224.067 159.717 224.286 157.252L223.987 157.225C223.788 159.467 220.844 164.106 210.367 163.942L210.362 164.242ZM196.028 157.881C196.395 160.003 199.824 164.078 210.362 164.242L210.367 163.942C199.872 163.778 196.652 159.729 196.323 157.83L196.028 157.881ZM203.564 156.985C203.749 155.449 204.908 154.539 206.333 154.027C207.758 153.515 209.412 153.416 210.5 153.484L210.519 153.185C209.404 153.115 207.706 153.215 206.232 153.745C204.758 154.274 203.471 155.25 203.266 156.949L203.564 156.985ZM210.504 160.586C209.251 160.632 207.401 160.498 205.92 159.958C205.179 159.688 204.543 159.32 204.117 158.834C203.694 158.353 203.472 157.75 203.564 156.985L203.266 156.949C203.163 157.801 203.414 158.489 203.891 159.032C204.363 159.571 205.051 159.961 205.817 160.24C207.348 160.798 209.241 160.932 210.515 160.886L210.504 160.586ZM216.76 156.985C216.852 157.755 216.655 158.36 216.278 158.841C215.897 159.325 215.326 159.691 214.66 159.96C213.325 160.498 211.651 160.632 210.516 160.586L210.504 160.886C211.663 160.932 213.384 160.798 214.772 160.238C215.467 159.958 216.09 159.566 216.514 159.026C216.941 158.482 217.16 157.796 217.058 156.949L216.76 156.985ZM210.52 153.484C211.49 153.416 212.968 153.515 214.246 154.025C215.521 154.534 216.574 155.441 216.76 156.985L217.058 156.949C216.854 155.258 215.692 154.28 214.358 153.747C213.026 153.215 211.5 153.115 210.499 153.185L210.52 153.484ZM210.518 153.185C209.415 153.12 207.73 153.226 206.26 153.757C204.79 154.288 203.499 155.26 203.266 156.946L203.564 156.987C203.774 155.461 204.94 154.553 206.362 154.039C207.783 153.526 209.424 153.421 210.501 153.484L210.518 153.185Z" fill="black"/>
<path d="M224.223 142.034C225.336 137.634 229.281 138.948 231.114 140.154C234.065 138.094 235.685 139.296 236.125 140.154C237.629 142.883 230.951 146.721 227.425 148.298C224.473 146.182 224.06 143.24 224.223 142.034Z" fill="#F68322"/>
<path d="M224.223 142.034C225.336 137.634 229.281 138.948 231.114 140.154C234.065 138.094 235.685 139.296 236.125 140.154C237.629 142.883 230.951 146.721 227.425 148.298C224.473 146.182 224.06 143.24 224.223 142.034Z" fill="url(#paint35_linear_1317_409)"/>
<path d="M224.223 142.034C225.336 137.634 229.281 138.948 231.114 140.154C234.065 138.094 235.685 139.296 236.125 140.154C237.629 142.883 230.951 146.721 227.425 148.298C224.473 146.182 224.06 143.24 224.223 142.034Z" stroke="black" stroke-width="0.3"/>
<path d="M240.789 129.549C237.503 134.784 241.415 138.691 243.782 139.99L250.882 136.092C253.016 134.863 256.826 131.721 254.989 128.992C253.151 126.264 249.814 127.855 248.376 128.992C245.369 126.375 242.065 128.273 240.789 129.549Z" fill="#F46E19"/>
<path d="M240.789 129.549C237.503 134.784 241.415 138.691 243.782 139.99L250.882 136.092C253.016 134.863 256.826 131.721 254.989 128.992C253.151 126.264 249.814 127.855 248.376 128.992C245.369 126.375 242.065 128.273 240.789 129.549Z" fill="url(#paint36_linear_1317_409)"/>
<path d="M240.789 129.549C237.503 134.784 241.415 138.691 243.782 139.99L250.882 136.092C253.016 134.863 256.826 131.721 254.989 128.992C253.151 126.264 249.814 127.855 248.376 128.992C245.369 126.375 242.065 128.273 240.789 129.549Z" stroke="black" stroke-width="0.3"/>
<path d="M117.794 124.111L149.914 124.111L150.881 126.895L136.605 126.895L136.605 129.733L132.962 129.733L132.962 126.895L117.794 126.895L117.794 124.111Z" fill="url(#paint37_linear_1317_409)"/>
<path d="M117.794 124.111L149.914 124.111L150.881 126.895L136.605 126.895L136.605 129.733L132.962 129.733L132.962 126.895L117.794 126.895L117.794 124.111Z" fill="url(#paint38_linear_1317_409)"/>
<path d="M117.794 124.111L149.914 124.111L150.881 126.895L136.605 126.895L136.605 129.733L132.962 129.733L132.962 126.895L117.794 126.895L117.794 124.111Z" stroke="black" stroke-width="0.3"/>
<path d="M139.99 112.868H128.775C128.553 112.975 128.683 113.179 128.775 113.267H129.251L131.39 113.933C131.443 114.522 131.517 116.009 131.39 117.241C131.264 118.472 129.911 118.932 129.251 119.008C123.924 117.077 121.695 118.66 121.246 119.693C120.942 120.301 121.356 121.556 125.446 121.708C129.536 121.86 133.095 120.428 134.363 119.693C137.945 121.518 141.8 121.898 143.279 121.86C144.243 121.879 146.402 121.708 147.321 120.871C148.241 120.035 147.704 119.167 147.321 118.837C144.309 117.119 140.941 118.121 139.633 118.837C138.112 118.624 137.758 117.684 137.771 117.241V113.933L139.277 113.267H139.99C140.339 113.1 140.135 112.932 139.99 112.868Z" fill="url(#paint39_linear_1317_409)"/>
<path d="M139.99 112.868H128.775C128.553 112.975 128.683 113.179 128.775 113.267H129.251L131.39 113.933C131.443 114.522 131.517 116.009 131.39 117.241C131.264 118.472 129.911 118.932 129.251 119.008C123.924 117.077 121.695 118.66 121.246 119.693C120.942 120.301 121.356 121.556 125.446 121.708C129.536 121.86 133.095 120.428 134.363 119.693C137.945 121.518 141.8 121.898 143.279 121.86C144.243 121.879 146.402 121.708 147.321 120.871C148.241 120.035 147.704 119.167 147.321 118.837C144.309 117.119 140.941 118.121 139.633 118.837C138.112 118.624 137.758 117.684 137.771 117.241V113.933L139.277 113.267H139.99C140.339 113.1 140.135 112.932 139.99 112.868Z" fill="url(#paint40_linear_1317_409)"/>
<path d="M139.99 112.868H128.775C128.553 112.975 128.683 113.179 128.775 113.267H129.251L131.39 113.933C131.443 114.522 131.517 116.009 131.39 117.241C131.264 118.472 129.911 118.932 129.251 119.008C123.924 117.077 121.695 118.66 121.246 119.693C120.942 120.301 121.356 121.556 125.446 121.708C129.536 121.86 133.095 120.428 134.363 119.693C137.945 121.518 141.8 121.898 143.279 121.86C144.243 121.879 146.402 121.708 147.321 120.871C148.241 120.035 147.704 119.167 147.321 118.837C144.309 117.119 140.941 118.121 139.633 118.837C138.112 118.624 137.758 117.684 137.771 117.241V113.933L139.277 113.267H139.99C140.339 113.1 140.135 112.932 139.99 112.868Z" stroke="black" stroke-width="0.3"/>
<path d="M174.873 120.943H171.949V128.739H174.873V120.943Z" fill="#F95410"/>
<path d="M174.873 120.943H171.949V128.739H174.873V120.943Z" fill="url(#paint41_linear_1317_409)"/>
<path d="M174.873 120.943H171.949V128.739H174.873V120.943Z" stroke="black" stroke-width="0.3"/>
<path d="M174.813 131.178H154.575V133.232H170.025V135.554H154.575V140.51C155.01 141.511 155.678 141.88 155.957 141.939H174.813V139.796H159.363V137.563H174.813V131.178Z" fill="#F95410"/>
<path d="M174.813 131.178H154.575V133.232H170.025V135.554H154.575V140.51C155.01 141.511 155.678 141.88 155.957 141.939H174.813V139.796H159.363V137.563H174.813V131.178Z" fill="url(#paint42_linear_1317_409)"/>
<path d="M174.813 131.178H154.575V133.232H170.025V135.554H154.575V140.51C155.01 141.511 155.678 141.88 155.957 141.939H174.813V139.796H159.363V137.563H174.813V131.178Z" stroke="black" stroke-width="0.3"/>
<path d="M165.293 121.917H157.563C157.41 121.998 157.499 122.153 157.563 122.22H157.891L159.366 122.725C159.402 123.171 159.453 124.299 159.366 125.233C159.278 126.167 158.346 126.516 157.891 126.574C154.22 125.109 152.683 126.31 152.373 127.093C152.164 127.554 152.45 128.506 155.269 128.621C158.087 128.737 160.54 127.651 161.414 127.093C163.883 128.477 166.54 128.766 167.56 128.737C168.224 128.751 169.712 128.621 170.346 127.987C170.979 127.353 170.61 126.694 170.346 126.444C168.27 125.141 165.948 125.901 165.047 126.444C163.998 126.283 163.754 125.57 163.763 125.233V122.725L164.801 122.22H165.293C165.533 122.093 165.393 121.965 165.293 121.917Z" fill="#F95410"/>
<path d="M165.293 121.917H157.563C157.41 121.998 157.499 122.153 157.563 122.22H157.891L159.366 122.725C159.402 123.171 159.453 124.299 159.366 125.233C159.278 126.167 158.346 126.516 157.891 126.574C154.22 125.109 152.683 126.31 152.373 127.093C152.164 127.554 152.45 128.506 155.269 128.621C158.087 128.737 160.54 127.651 161.414 127.093C163.883 128.477 166.54 128.766 167.56 128.737C168.224 128.751 169.712 128.621 170.346 127.987C170.979 127.353 170.61 126.694 170.346 126.444C168.27 125.141 165.948 125.901 165.047 126.444C163.998 126.283 163.754 125.57 163.763 125.233V122.725L164.801 122.22H165.293C165.533 122.093 165.393 121.965 165.293 121.917Z" fill="url(#paint43_linear_1317_409)"/>
<path d="M165.293 121.917H157.563C157.41 121.998 157.499 122.153 157.563 122.22H157.891L159.366 122.725C159.402 123.171 159.453 124.299 159.366 125.233C159.278 126.167 158.346 126.516 157.891 126.574C154.22 125.109 152.683 126.31 152.373 127.093C152.164 127.554 152.45 128.506 155.269 128.621C158.087 128.737 160.54 127.651 161.414 127.093C163.883 128.477 166.54 128.766 167.56 128.737C168.224 128.751 169.712 128.621 170.346 127.987C170.979 127.353 170.61 126.694 170.346 126.444C168.27 125.141 165.948 125.901 165.047 126.444C163.998 126.283 163.754 125.57 163.763 125.233V122.725L164.801 122.22H165.293C165.533 122.093 165.393 121.965 165.293 121.917Z" stroke="black" stroke-width="0.3"/>
<path fill-rule="evenodd" clip-rule="evenodd" d="M165.281 181.74C163.865 179.582 159.503 175.67 153.378 177.285C147.252 178.9 144.561 183.341 143.981 185.359C143.308 186.868 142.923 190.858 146.765 194.756C150.607 198.654 160.71 204.455 165.281 206.868L183.239 196.288C184.979 194.339 188.237 189.522 187.346 185.847C186.455 182.171 182.566 179.582 180.733 178.747C179.109 177.888 174.803 176.561 170.571 178.12C169.689 178.584 167.773 179.861 167.16 181.253C167.044 181.554 166.659 182.116 166.046 181.949C165.907 181.926 165.559 181.851 165.281 181.74ZM162.65 184.903C162.905 185.181 163.597 185.571 164.321 184.903C164.37 184.857 164.424 184.806 164.483 184.751C165.489 183.804 167.787 181.642 171.142 183.023C173.982 184.193 175.203 185.877 175.458 186.573C176.432 187.965 177.254 191.557 172.743 194.787C168.233 198.017 164.97 199.567 163.903 199.938L152.487 192.699C151.536 191.84 150.065 189.357 151.791 186.295C153.518 183.232 156.269 182.745 157.43 182.884C158.311 182.745 160.59 182.954 162.65 184.903Z" fill="url(#paint44_linear_1317_409)"/>
<path fill-rule="evenodd" clip-rule="evenodd" d="M165.281 181.74C163.865 179.582 159.503 175.67 153.378 177.285C147.252 178.9 144.561 183.341 143.981 185.359C143.308 186.868 142.923 190.858 146.765 194.756C150.607 198.654 160.71 204.455 165.281 206.868L183.239 196.288C184.979 194.339 188.237 189.522 187.346 185.847C186.455 182.171 182.566 179.582 180.733 178.747C179.109 177.888 174.803 176.561 170.571 178.12C169.689 178.584 167.773 179.861 167.16 181.253C167.044 181.554 166.659 182.116 166.046 181.949C165.907 181.926 165.559 181.851 165.281 181.74ZM162.65 184.903C162.905 185.181 163.597 185.571 164.321 184.903C164.37 184.857 164.424 184.806 164.483 184.751C165.489 183.804 167.787 181.642 171.142 183.023C173.982 184.193 175.203 185.877 175.458 186.573C176.432 187.965 177.254 191.557 172.743 194.787C168.233 198.017 164.97 199.567 163.903 199.938L152.487 192.699C151.536 191.84 150.065 189.357 151.791 186.295C153.518 183.232 156.269 182.745 157.43 182.884C158.311 182.745 160.59 182.954 162.65 184.903Z" fill="url(#paint45_linear_1317_409)"/>
<path d="M153.378 177.285L153.416 177.43L153.378 177.285ZM165.281 181.74L165.155 181.822L165.181 181.862L165.225 181.879L165.281 181.74ZM143.981 185.359L144.118 185.421L144.122 185.411L144.125 185.401L143.981 185.359ZM146.765 194.756L146.872 194.651L146.872 194.651L146.765 194.756ZM165.281 206.868L165.211 207.001L165.285 207.04L165.357 206.997L165.281 206.868ZM183.239 196.288L183.315 196.417L183.336 196.405L183.351 196.388L183.239 196.288ZM187.346 185.847L187.492 185.811L187.492 185.811L187.346 185.847ZM180.733 178.747L180.663 178.88L180.671 178.883L180.733 178.747ZM170.571 178.12L170.519 177.98L170.51 177.983L170.501 177.988L170.571 178.12ZM167.16 181.253L167.023 181.192L167.02 181.199L167.16 181.253ZM166.046 181.949L166.086 181.804L166.078 181.802L166.071 181.801L166.046 181.949ZM164.321 184.903L164.422 185.013L164.422 185.013L164.321 184.903ZM162.65 184.903L162.761 184.801L162.753 184.794L162.65 184.903ZM164.483 184.751L164.586 184.86L164.586 184.86L164.483 184.751ZM171.142 183.023L171.199 182.884L171.199 182.884L171.142 183.023ZM175.458 186.573L175.317 186.625L175.324 186.643L175.335 186.659L175.458 186.573ZM172.743 194.787L172.83 194.909L172.83 194.909L172.743 194.787ZM163.903 199.938L163.823 200.064L163.884 200.103L163.952 200.079L163.903 199.938ZM152.487 192.699L152.387 192.81L152.396 192.818L152.407 192.825L152.487 192.699ZM157.43 182.884L157.412 183.033L157.432 183.035L157.453 183.032L157.43 182.884ZM162.705 184.872L162.816 184.771L162.808 184.763L162.705 184.872ZM164.376 184.872L164.274 184.762L164.274 184.762L164.376 184.872ZM164.538 184.721L164.641 184.83L164.641 184.83L164.538 184.721ZM171.197 182.993L171.254 182.854L171.254 182.854L171.197 182.993ZM175.513 186.543L175.372 186.594L175.379 186.613L175.39 186.629L175.513 186.543ZM172.798 194.756L172.711 194.635L172.711 194.635L172.798 194.756ZM163.958 199.907L163.878 200.034L163.939 200.073L164.007 200.049L163.958 199.907ZM152.542 192.668L152.442 192.78L152.451 192.788L152.462 192.795L152.542 192.668ZM151.846 186.264L151.977 186.338L151.977 186.338L151.846 186.264ZM157.485 182.854L157.467 183.003L157.487 183.005L157.508 183.002L157.485 182.854ZM153.416 177.43C159.455 175.838 163.759 179.694 165.155 181.822L165.406 181.658C163.971 179.47 159.551 175.502 153.339 177.14L153.416 177.43ZM144.125 185.401C144.692 183.427 147.348 179.03 153.416 177.43L153.339 177.14C147.157 178.77 144.429 183.255 143.837 185.318L144.125 185.401ZM146.872 194.651C143.073 190.797 143.47 186.873 144.118 185.421L143.844 185.298C143.146 186.862 142.772 190.919 146.658 194.862L146.872 194.651ZM165.351 206.735C163.068 205.53 159.403 203.479 155.829 201.242C152.252 199.003 148.779 196.586 146.872 194.651L146.658 194.862C148.593 196.825 152.093 199.257 155.67 201.496C159.251 203.738 162.922 205.793 165.211 207.001L165.351 206.735ZM183.163 196.159L165.204 206.739L165.357 206.997L183.315 196.417L183.163 196.159ZM187.2 185.882C187.633 187.668 187.06 189.752 186.144 191.649C185.231 193.542 183.99 195.222 183.127 196.188L183.351 196.388C184.229 195.405 185.487 193.702 186.414 191.78C187.34 189.863 187.95 187.7 187.492 185.811L187.2 185.882ZM180.671 178.883C181.574 179.295 182.991 180.142 184.291 181.342C185.592 182.542 186.764 184.084 187.2 185.882L187.492 185.811C187.037 183.934 185.819 182.344 184.495 181.122C183.17 179.899 181.726 179.034 180.796 178.61L180.671 178.883ZM170.623 178.261C174.802 176.721 179.063 178.033 180.663 178.879L180.803 178.614C179.156 177.743 174.804 176.401 170.519 177.98L170.623 178.261ZM167.297 181.313C167.589 180.649 168.2 180 168.86 179.454C169.517 178.91 170.208 178.481 170.641 178.253L170.501 177.988C170.052 178.224 169.343 178.665 168.669 179.223C167.997 179.779 167.343 180.464 167.023 181.192L167.297 181.313ZM166.007 182.093C166.371 182.193 166.67 182.072 166.886 181.891C167.097 181.714 167.235 181.475 167.3 181.307L167.02 181.199C166.969 181.332 166.856 181.524 166.693 181.662C166.534 181.795 166.334 181.872 166.086 181.804L166.007 182.093ZM165.225 181.879C165.517 181.996 165.877 182.073 166.022 182.097L166.071 181.801C165.937 181.778 165.601 181.706 165.336 181.601L165.225 181.879ZM164.219 184.792C163.889 185.097 163.581 185.15 163.334 185.11C163.078 185.067 162.87 184.921 162.761 184.801L162.539 185.004C162.685 185.163 162.951 185.35 163.285 185.406C163.628 185.462 164.028 185.377 164.422 185.013L164.219 184.792ZM164.38 184.642C164.321 184.697 164.268 184.747 164.219 184.792L164.422 185.013C164.473 184.966 164.527 184.915 164.586 184.86L164.38 184.642ZM171.199 182.884C167.749 181.464 165.383 183.698 164.38 184.642L164.586 184.86C165.595 183.91 167.825 181.82 171.085 183.162L171.199 182.884ZM175.599 186.522C175.326 185.777 174.068 184.066 171.199 182.884L171.085 183.162C173.896 184.319 175.08 185.977 175.317 186.625L175.599 186.522ZM172.83 194.909C175.112 193.275 176.061 191.537 176.305 190.015C176.549 188.497 176.088 187.212 175.581 186.487L175.335 186.659C175.802 187.326 176.239 188.533 176.009 189.967C175.78 191.396 174.885 193.069 172.656 194.665L172.83 194.909ZM163.952 200.079C165.038 199.702 168.313 198.143 172.83 194.909L172.656 194.665C168.152 197.89 164.903 199.431 163.854 199.796L163.952 200.079ZM152.407 192.825L163.823 200.064L163.983 199.811L152.568 192.572L152.407 192.825ZM151.661 186.221C149.891 189.361 151.399 191.918 152.387 192.81L152.588 192.587C151.673 191.762 150.239 189.354 151.922 186.368L151.661 186.221ZM157.447 182.735C156.235 182.59 153.421 183.099 151.661 186.221L151.922 186.368C153.615 183.365 156.303 182.9 157.412 183.033L157.447 182.735ZM162.753 184.794C160.657 182.811 158.331 182.59 157.406 182.736L157.453 183.032C158.291 182.9 160.522 183.096 162.547 185.012L162.753 184.794ZM162.595 184.974C162.74 185.132 163.006 185.32 163.34 185.375C163.683 185.432 164.083 185.346 164.477 184.982L164.274 184.762C163.944 185.066 163.636 185.12 163.389 185.079C163.133 185.037 162.925 184.89 162.816 184.771L162.595 184.974ZM164.477 184.982C164.528 184.936 164.582 184.885 164.641 184.83L164.435 184.611C164.376 184.666 164.323 184.717 164.274 184.762L164.477 184.982ZM164.641 184.83C165.65 183.88 167.88 181.789 171.14 183.132L171.254 182.854C167.804 181.433 165.438 183.668 164.435 184.611L164.641 184.83ZM171.14 183.132C173.951 184.289 175.135 185.947 175.372 186.594L175.654 186.491C175.381 185.746 174.123 184.035 171.254 182.854L171.14 183.132ZM175.39 186.629C175.857 187.296 176.294 188.503 176.064 189.937C175.835 191.366 174.94 193.038 172.711 194.635L172.885 194.878C175.167 193.245 176.116 191.506 176.361 189.984C176.604 188.467 176.143 187.182 175.636 186.457L175.39 186.629ZM172.711 194.635C168.207 197.859 164.958 199.401 163.909 199.766L164.007 200.049C165.093 199.671 168.368 198.113 172.885 194.878L172.711 194.635ZM164.038 199.781L152.623 192.542L152.462 192.795L163.878 200.034L164.038 199.781ZM152.643 192.557C151.728 191.731 150.295 189.323 151.977 186.338L151.716 186.191C149.946 189.331 151.454 191.888 152.442 192.78L152.643 192.557ZM151.977 186.338C153.67 183.335 156.358 182.87 157.467 183.003L157.502 182.705C156.29 182.559 153.476 183.068 151.716 186.191L151.977 186.338ZM157.508 183.002C158.346 182.869 160.577 183.066 162.602 184.981L162.808 184.763C160.712 182.781 158.386 182.559 157.461 182.705L157.508 183.002Z" fill="black"/>
<path fill-rule="evenodd" clip-rule="evenodd" d="M134.266 132.002C133.311 130.98 130.368 129.126 126.235 129.891C122.102 130.656 120.286 132.761 119.895 133.718C119.441 134.432 119.181 136.324 121.774 138.171C124.366 140.018 131.182 142.767 134.266 143.911L146.383 138.896C147.557 137.973 149.755 135.69 149.154 133.948C148.553 132.207 145.929 130.98 144.692 130.584C143.597 130.177 140.691 129.548 137.836 130.287C137.241 130.507 135.948 131.112 135.534 131.771C135.456 131.914 135.196 132.18 134.783 132.101C134.689 132.09 134.454 132.055 134.266 132.002ZM132.491 133.501C132.664 133.633 133.13 133.818 133.619 133.501C133.652 133.479 133.689 133.455 133.728 133.429C134.407 132.98 135.957 131.956 138.221 132.61C140.137 133.165 140.961 133.963 141.133 134.293C141.791 134.952 142.345 136.655 139.301 138.185C136.258 139.716 134.057 140.45 133.337 140.626L125.635 137.196C124.993 136.789 124 135.612 125.165 134.161C126.33 132.709 128.186 132.478 128.969 132.544C129.564 132.478 131.101 132.577 132.491 133.501Z" fill="url(#paint46_linear_1317_409)"/>
<path fill-rule="evenodd" clip-rule="evenodd" d="M134.266 132.002C133.311 130.98 130.368 129.126 126.235 129.891C122.102 130.656 120.286 132.761 119.895 133.718C119.441 134.432 119.181 136.324 121.774 138.171C124.366 140.018 131.182 142.767 134.266 143.911L146.383 138.896C147.557 137.973 149.755 135.69 149.154 133.948C148.553 132.207 145.929 130.98 144.692 130.584C143.597 130.177 140.691 129.548 137.836 130.287C137.241 130.507 135.948 131.112 135.534 131.771C135.456 131.914 135.196 132.18 134.783 132.101C134.689 132.09 134.454 132.055 134.266 132.002ZM132.491 133.501C132.664 133.633 133.13 133.818 133.619 133.501C133.652 133.479 133.689 133.455 133.728 133.429C134.407 132.98 135.957 131.956 138.221 132.61C140.137 133.165 140.961 133.963 141.133 134.293C141.791 134.952 142.345 136.655 139.301 138.185C136.258 139.716 134.057 140.45 133.337 140.626L125.635 137.196C124.993 136.789 124 135.612 125.165 134.161C126.33 132.709 128.186 132.478 128.969 132.544C129.564 132.478 131.101 132.577 132.491 133.501Z" fill="url(#paint47_linear_1317_409)"/>
<path d="M126.235 129.891L126.263 130.039L126.235 129.891ZM134.266 132.002L134.157 132.105L134.185 132.135L134.226 132.147L134.266 132.002ZM119.895 133.718L120.022 133.798L120.029 133.787L120.034 133.774L119.895 133.718ZM121.774 138.171L121.686 138.293L121.686 138.293L121.774 138.171ZM134.266 143.911L134.214 144.051L134.269 144.072L134.324 144.049L134.266 143.911ZM146.383 138.896L146.44 139.035L146.46 139.027L146.476 139.014L146.383 138.896ZM149.154 133.948L149.012 133.997L149.012 133.997L149.154 133.948ZM144.692 130.584L144.64 130.725L144.647 130.727L144.692 130.584ZM137.836 130.287L137.798 130.142L137.791 130.144L137.783 130.146L137.836 130.287ZM135.534 131.771L135.407 131.692L135.403 131.699L135.534 131.771ZM134.783 132.101L134.811 131.953L134.8 131.952L134.783 132.101ZM133.619 133.501L133.7 133.627L133.7 133.627L133.619 133.501ZM132.491 133.501L132.583 133.382L132.574 133.376L132.491 133.501ZM133.728 133.429L133.811 133.554L133.811 133.554L133.728 133.429ZM138.221 132.61L138.18 132.754L138.18 132.754L138.221 132.61ZM141.133 134.293L141 134.362L141.011 134.382L141.027 134.399L141.133 134.293ZM139.301 138.185L139.369 138.319L139.369 138.319L139.301 138.185ZM133.337 140.626L133.276 140.763L133.323 140.784L133.372 140.772L133.337 140.626ZM125.635 137.196L125.554 137.322L125.564 137.328L125.574 137.333L125.635 137.196ZM125.165 134.161L125.048 134.067L125.048 134.067L125.165 134.161ZM128.969 132.544L128.957 132.694L128.971 132.695L128.986 132.693L128.969 132.544ZM132.528 133.487L132.62 133.367L132.611 133.362L132.528 133.487ZM133.656 133.487L133.574 133.361L133.574 133.361L133.656 133.487ZM133.765 133.415L133.848 133.54L133.848 133.54L133.765 133.415ZM138.258 132.596L138.217 132.74L138.217 132.74L138.258 132.596ZM141.17 134.278L141.037 134.348L141.048 134.368L141.064 134.384L141.17 134.278ZM139.338 138.171L139.406 138.305L139.406 138.305L139.338 138.171ZM133.374 140.612L133.313 140.749L133.36 140.77L133.409 140.758L133.374 140.612ZM125.672 137.181L125.591 137.308L125.601 137.314L125.611 137.318L125.672 137.181ZM129.006 132.53L128.994 132.679L129.008 132.681L129.023 132.679L129.006 132.53ZM126.263 130.039C130.339 129.284 133.232 131.115 134.157 132.105L134.376 131.9C133.39 130.845 130.397 128.968 126.208 129.744L126.263 130.039ZM120.034 133.774C120.401 132.876 122.167 130.797 126.263 130.039L126.208 129.744C122.037 130.516 120.171 132.646 119.756 133.661L120.034 133.774ZM121.861 138.049C120.586 137.141 120.029 136.234 119.837 135.482C119.645 134.729 119.817 134.12 120.022 133.798L119.768 133.637C119.519 134.03 119.334 134.724 119.546 135.557C119.759 136.391 120.368 137.354 121.686 138.293L121.861 138.049ZM134.318 143.77C132.779 143.199 130.306 142.227 127.896 141.167C125.481 140.106 123.143 138.962 121.861 138.049L121.686 138.293C122.997 139.227 125.362 140.381 127.775 141.442C130.192 142.504 132.67 143.479 134.214 144.051L134.318 143.77ZM146.326 138.758L134.209 143.772L134.324 144.049L146.44 139.035L146.326 138.758ZM149.012 133.997C149.288 134.796 148.927 135.747 148.311 136.644C147.7 137.533 146.869 138.324 146.29 138.779L146.476 139.014C147.072 138.546 147.926 137.734 148.558 136.814C149.184 135.903 149.621 134.843 149.296 133.9L149.012 133.997ZM144.647 130.727C145.254 130.921 146.207 131.322 147.08 131.887C147.958 132.456 148.728 133.175 149.012 133.997L149.296 133.9C148.979 132.98 148.137 132.215 147.243 131.636C146.345 131.053 145.367 130.642 144.738 130.441L144.647 130.727ZM137.873 130.432C140.691 129.703 143.564 130.325 144.64 130.724L144.745 130.443C143.629 130.029 140.691 129.393 137.798 130.142L137.873 130.432ZM135.661 131.851C135.847 131.554 136.246 131.253 136.692 130.994C137.133 130.738 137.597 130.535 137.888 130.428L137.783 130.146C137.479 130.259 136.999 130.468 136.541 130.734C136.089 130.997 135.635 131.329 135.407 131.692L135.661 131.851ZM134.755 132.248C135.253 132.344 135.568 132.022 135.666 131.843L135.403 131.699C135.344 131.806 135.139 132.017 134.811 131.954L134.755 132.248ZM134.226 132.147C134.424 132.202 134.668 132.239 134.765 132.25L134.8 131.952C134.71 131.942 134.484 131.908 134.307 131.858L134.226 132.147ZM133.537 133.375C133.117 133.648 132.72 133.487 132.583 133.382L132.4 133.62C132.607 133.779 133.144 133.988 133.7 133.627L133.537 133.375ZM133.645 133.304C133.606 133.33 133.57 133.354 133.537 133.375L133.7 133.627C133.734 133.605 133.771 133.58 133.811 133.554L133.645 133.304ZM138.263 132.466C135.931 131.792 134.33 132.851 133.645 133.304L133.811 133.554C134.484 133.11 135.984 132.119 138.18 132.754L138.263 132.466ZM141.266 134.223C141.163 134.026 140.891 133.727 140.414 133.411C139.933 133.091 139.234 132.747 138.263 132.466L138.18 132.754C139.125 133.028 139.795 133.36 140.248 133.661C140.705 133.964 140.931 134.229 141 134.362L141.266 134.223ZM139.369 138.319C140.91 137.544 141.577 136.707 141.751 135.946C141.925 135.184 141.595 134.543 141.239 134.187L141.027 134.399C141.329 134.702 141.604 135.242 141.459 135.879C141.313 136.516 140.736 137.296 139.234 138.051L139.369 138.319ZM133.372 140.772C134.107 140.593 136.319 139.853 139.369 138.319L139.234 138.051C136.197 139.578 134.007 140.308 133.301 140.48L133.372 140.772ZM125.574 137.333L133.276 140.763L133.398 140.489L125.696 137.059L125.574 137.333ZM125.048 134.067C124.436 134.83 124.38 135.54 124.581 136.119C124.777 136.686 125.213 137.106 125.554 137.322L125.715 137.069C125.414 136.878 125.033 136.507 124.864 136.021C124.699 135.546 124.73 134.943 125.282 134.255L125.048 134.067ZM128.982 132.395C128.171 132.327 126.256 132.562 125.048 134.067L125.282 134.255C126.404 132.857 128.202 132.63 128.957 132.694L128.982 132.395ZM132.574 133.376C131.15 132.429 129.575 132.326 128.953 132.395L128.986 132.693C129.553 132.631 131.053 132.725 132.408 133.626L132.574 133.376ZM132.437 133.606C132.644 133.764 133.181 133.973 133.737 133.612L133.574 133.361C133.154 133.633 132.757 133.473 132.62 133.368L132.437 133.606ZM133.737 133.612C133.771 133.59 133.808 133.566 133.848 133.54L133.682 133.29C133.643 133.316 133.607 133.339 133.574 133.361L133.737 133.612ZM133.848 133.54C134.521 133.095 136.021 132.105 138.217 132.74L138.3 132.452C135.968 131.778 134.367 132.837 133.682 133.29L133.848 133.54ZM138.217 132.74C139.162 133.013 139.832 133.346 140.285 133.646C140.742 133.95 140.968 134.215 141.037 134.348L141.303 134.209C141.2 134.012 140.928 133.713 140.451 133.396C139.97 133.077 139.271 132.733 138.3 132.452L138.217 132.74ZM141.064 134.384C141.366 134.687 141.641 135.228 141.496 135.865C141.35 136.502 140.773 137.281 139.271 138.037L139.406 138.305C140.947 137.53 141.614 136.693 141.788 135.931C141.962 135.17 141.632 134.529 141.276 134.172L141.064 134.384ZM139.271 138.037C136.234 139.564 134.044 140.294 133.338 140.466L133.409 140.758C134.144 140.578 136.356 139.839 139.406 138.305L139.271 138.037ZM133.435 140.475L125.733 137.044L125.611 137.318L133.313 140.749L133.435 140.475ZM125.752 137.054C125.451 136.864 125.07 136.492 124.901 136.006C124.736 135.532 124.767 134.929 125.319 134.24L125.085 134.052C124.473 134.816 124.417 135.526 124.618 136.105C124.814 136.672 125.25 137.092 125.591 137.308L125.752 137.054ZM125.319 134.24C126.441 132.842 128.239 132.616 128.994 132.679L129.019 132.381C128.208 132.312 126.293 132.548 125.085 134.052L125.319 134.24ZM129.023 132.679C129.59 132.616 131.09 132.711 132.445 133.612L132.611 133.362C131.187 132.415 129.612 132.312 128.99 132.381L129.023 132.679Z" fill="black"/>
</g>
<g filter="url(#filter1_f_1317_409)">
<path d="M62.5801 41.3218C63.3856 41.6084 63.8062 42.4937 63.5195 43.2992C63.2329 44.1047 62.3475 44.5253 61.5421 44.2386C60.7366 43.952 60.316 43.0666 60.6027 42.2612C60.8893 41.4557 61.7746 41.0351 62.5801 41.3218Z" fill="white"/>
<path d="M34.8372 33.092L60.8741 41.8834L60.5744 42.7254L34.8372 33.092Z" fill="white"/>
<path d="M52.5461 69.518L61.2077 43.8457L62.0497 44.1454L52.5461 69.518Z" fill="white"/>
<path d="M89.2854 52.4683L63.2485 43.6769L63.5481 42.8349L89.2854 52.4683Z" fill="white"/>
<path d="M71.7491 15.5562L62.9577 41.5931L62.1156 41.2935L71.7491 15.5562Z" fill="white"/>
<path d="M93.5292 67.3049C94.3459 67.5579 94.8027 68.4251 94.5497 69.2417C94.2967 70.0584 93.4295 70.5153 92.6129 70.2622C91.7962 70.0092 91.3393 69.142 91.5924 68.3254C91.8454 67.5088 92.7126 67.0519 93.5292 67.3049Z" fill="white"/>
<path d="M65.4693 60.2311L91.8479 67.9367L91.5834 68.7904L65.4693 60.2311Z" fill="white"/>
<path d="M84.6714 95.8925L92.2625 69.8835L93.1162 70.148L84.6714 95.8925Z" fill="white"/>
<path d="M120.673 77.3361L94.2946 69.6304L94.5591 68.7767L120.673 77.3361Z" fill="white"/>
<path d="M101.623 41.1818L93.9177 67.5604L93.064 67.2959L101.623 41.1818Z" fill="white"/>
<path d="M281.552 69.8656C282.38 71.3004 281.888 73.1352 280.453 73.9636C279.019 74.7921 277.184 74.3004 276.355 72.8656C275.527 71.4307 276.019 69.5959 277.453 68.7675C278.888 67.9391 280.723 68.4307 281.552 69.8656Z" fill="white"/>
<path d="M250.954 22.8681L278.328 68.551L276.828 69.417L250.954 22.8681Z" fill="white"/>
<path d="M231.322 98.8656L276.355 71.8656L277.221 73.3656L231.322 98.8656Z" fill="white"/>
<path d="M306.953 119.863L279.578 74.1801L281.078 73.3141L306.953 119.863Z" fill="white"/>
<path d="M327.451 43.3656L281.768 70.7406L280.902 69.2406L327.451 43.3656Z" fill="white"/>
<path d="M323.488 32.1266C323.977 32.9733 323.687 34.0561 322.84 34.545C321.993 35.0338 320.91 34.7437 320.421 33.897C319.933 33.0502 320.223 31.9674 321.069 31.4785C321.916 30.9897 322.999 31.2798 323.488 32.1266Z" fill="white"/>
<path d="M305.431 4.39185L321.586 31.3508L320.701 31.8618L305.431 4.39185Z" fill="white"/>
<path d="M293.846 49.2404L320.421 33.3068L320.933 34.192L293.846 49.2404Z" fill="white"/>
<path d="M338.478 61.6317L322.324 34.6727L323.209 34.1617L338.478 61.6317Z" fill="white"/>
<path d="M350.575 16.488L323.616 32.6429L323.105 31.7577L350.575 16.488Z" fill="white"/>
<path d="M332.962 168.057C334.321 168.458 335.097 169.884 334.697 171.243C334.296 172.602 332.87 173.378 331.511 172.978C330.152 172.577 329.375 171.15 329.776 169.792C330.177 168.433 331.603 167.656 332.962 168.057Z" fill="white"/>
<path d="M286.312 156.973L330.191 169.142L329.772 170.562L286.312 156.973Z" fill="white"/>
<path d="M318.934 215.621L330.922 172.358L332.342 172.777L318.934 215.621Z" fill="white"/>
<path d="M378.161 184.062L334.282 171.893L334.701 170.472L378.161 184.062Z" fill="white"/>
<path d="M345.781 124.593L333.612 168.471L332.192 168.053L345.781 124.593Z" fill="white"/>
<path d="M54.9873 158.618C55.8157 160.053 55.3241 161.888 53.8892 162.716C52.4543 163.545 50.6196 163.053 49.7911 161.618C48.9627 160.183 49.4543 158.349 50.8892 157.52C52.3241 156.692 54.1589 157.183 54.9873 158.618Z" fill="white"/>
<path d="M24.3892 111.621L51.7642 157.304L50.2642 158.17L24.3892 111.621Z" fill="white"/>
<path d="M4.75781 187.618L49.7911 160.618L50.6572 162.118L4.75781 187.618Z" fill="white"/>
<path d="M80.3892 208.616L53.0142 162.933L54.5142 162.067L80.3892 208.616Z" fill="white"/>
<path d="M100.887 132.118L55.2038 159.493L54.3378 157.993L100.887 132.118Z" fill="white"/>
</g>
<defs>
<filter id="filter0_d_1317_409" x="66.1719" y="112.718" width="255.753" height="102.322" filterUnits="userSpaceOnUse" color-interpolation-filters="sRGB">
<feFlood flood-opacity="0" result="BackgroundImageFix"/>
<feColorMatrix in="SourceAlpha" type="matrix" values="0 0 0 0 0 0 0 0 0 0 0 0 0 0 0 0 0 0 127 0" result="hardAlpha"/>
<feOffset dy="4"/>
<feGaussianBlur stdDeviation="2"/>
<feComposite in2="hardAlpha" operator="out"/>
<feColorMatrix type="matrix" values="0 0 0 0 0 0 0 0 0 0 0 0 0 0 0 0 0 0 0.25 0"/>
<feBlend mode="normal" in2="BackgroundImageFix" result="effect1_dropShadow_1317_409"/>
<feBlend mode="normal" in="SourceGraphic" in2="effect1_dropShadow_1317_409" result="shape"/>
</filter>
<filter id="filter1_f_1317_409" x="0.757812" y="0.391846" width="381.403" height="219.23" filterUnits="userSpaceOnUse" color-interpolation-filters="sRGB">
<feFlood flood-opacity="0" result="BackgroundImageFix"/>
<feBlend mode="normal" in="SourceGraphic" in2="BackgroundImageFix" result="shape"/>
<feGaussianBlur stdDeviation="2" result="effect1_foregroundBlur_1317_409"/>
</filter>
<linearGradient id="paint0_linear_1317_409" x1="189.456" y1="149.06" x2="198.641" y2="207.116" gradientUnits="userSpaceOnUse">
<stop stop-color="#FF873A"/>
<stop offset="1" stop-color="#FAE926"/>
</linearGradient>
<linearGradient id="paint1_linear_1317_409" x1="194.049" y1="150.178" x2="194.333" y2="160.682" gradientUnits="userSpaceOnUse">
<stop stop-color="white" stop-opacity="0.4"/>
<stop offset="0.49" stop-color="white" stop-opacity="0"/>
</linearGradient>
<linearGradient id="paint2_linear_1317_409" x1="263.343" y1="150.178" x2="263.065" y2="157.486" gradientUnits="userSpaceOnUse">
<stop stop-color="white" stop-opacity="0.62"/>
<stop offset="0.645" stop-color="white" stop-opacity="0.31"/>
<stop offset="1" stop-color="white" stop-opacity="0"/>
</linearGradient>
<linearGradient id="paint3_linear_1317_409" x1="189.456" y1="149.06" x2="198.641" y2="207.116" gradientUnits="userSpaceOnUse">
<stop stop-color="#FF873A"/>
<stop offset="1" stop-color="#FAE926"/>
</linearGradient>
<linearGradient id="paint4_linear_1317_409" x1="194.049" y1="150.178" x2="194.333" y2="160.682" gradientUnits="userSpaceOnUse">
<stop stop-color="white" stop-opacity="0.4"/>
<stop offset="0.49" stop-color="white" stop-opacity="0"/>
</linearGradient>
<linearGradient id="paint5_linear_1317_409" x1="263.343" y1="150.178" x2="263.065" y2="157.486" gradientUnits="userSpaceOnUse">
<stop stop-color="white" stop-opacity="0.62"/>
<stop offset="0.645" stop-color="white" stop-opacity="0.31"/>
<stop offset="1" stop-color="white" stop-opacity="0"/>
</linearGradient>
<linearGradient id="paint6_linear_1317_409" x1="189.456" y1="149.06" x2="198.641" y2="207.116" gradientUnits="userSpaceOnUse">
<stop stop-color="#FF873A"/>
<stop offset="1" stop-color="#FAE926"/>
</linearGradient>
<linearGradient id="paint7_linear_1317_409" x1="194.049" y1="150.178" x2="194.333" y2="160.682" gradientUnits="userSpaceOnUse">
<stop stop-color="white" stop-opacity="0.4"/>
<stop offset="0.49" stop-color="white" stop-opacity="0"/>
</linearGradient>
<linearGradient id="paint8_linear_1317_409" x1="263.343" y1="150.178" x2="263.065" y2="157.486" gradientUnits="userSpaceOnUse">
<stop stop-color="white" stop-opacity="0.62"/>
<stop offset="0.645" stop-color="white" stop-opacity="0.31"/>
<stop offset="1" stop-color="white" stop-opacity="0"/>
</linearGradient>
<linearGradient id="paint9_linear_1317_409" x1="189.456" y1="149.06" x2="198.641" y2="207.116" gradientUnits="userSpaceOnUse">
<stop stop-color="#FF873A"/>
<stop offset="1" stop-color="#FAE926"/>
</linearGradient>
<linearGradient id="paint10_linear_1317_409" x1="194.049" y1="150.178" x2="194.333" y2="160.682" gradientUnits="userSpaceOnUse">
<stop stop-color="white" stop-opacity="0.4"/>
<stop offset="0.49" stop-color="white" stop-opacity="0"/>
</linearGradient>
<linearGradient id="paint11_linear_1317_409" x1="263.343" y1="150.178" x2="263.065" y2="157.486" gradientUnits="userSpaceOnUse">
<stop stop-color="white" stop-opacity="0.62"/>
<stop offset="0.645" stop-color="white" stop-opacity="0.31"/>
<stop offset="1" stop-color="white" stop-opacity="0"/>
</linearGradient>
<linearGradient id="paint12_linear_1317_409" x1="189.456" y1="149.06" x2="198.641" y2="207.116" gradientUnits="userSpaceOnUse">
<stop stop-color="#FF873A"/>
<stop offset="1" stop-color="#FAE926"/>
</linearGradient>
<linearGradient id="paint13_linear_1317_409" x1="194.049" y1="150.178" x2="194.333" y2="160.682" gradientUnits="userSpaceOnUse">
<stop stop-color="white" stop-opacity="0.4"/>
<stop offset="0.49" stop-color="white" stop-opacity="0"/>
</linearGradient>
<linearGradient id="paint14_linear_1317_409" x1="263.343" y1="150.178" x2="263.065" y2="157.486" gradientUnits="userSpaceOnUse">
<stop stop-color="white" stop-opacity="0.62"/>
<stop offset="0.645" stop-color="white" stop-opacity="0.31"/>
<stop offset="1" stop-color="white" stop-opacity="0"/>
</linearGradient>
<linearGradient id="paint15_linear_1317_409" x1="189.456" y1="149.06" x2="198.641" y2="207.116" gradientUnits="userSpaceOnUse">
<stop stop-color="#FF873A"/>
<stop offset="1" stop-color="#FAE926"/>
</linearGradient>
<linearGradient id="paint16_linear_1317_409" x1="194.049" y1="150.178" x2="194.333" y2="160.682" gradientUnits="userSpaceOnUse">
<stop stop-color="white" stop-opacity="0.4"/>
<stop offset="0.49" stop-color="white" stop-opacity="0"/>
</linearGradient>
<linearGradient id="paint17_linear_1317_409" x1="263.343" y1="150.178" x2="263.065" y2="157.486" gradientUnits="userSpaceOnUse">
<stop stop-color="white" stop-opacity="0.62"/>
<stop offset="0.645" stop-color="white" stop-opacity="0.31"/>
<stop offset="1" stop-color="white" stop-opacity="0"/>
</linearGradient>
<linearGradient id="paint18_linear_1317_409" x1="189.456" y1="149.06" x2="198.641" y2="207.116" gradientUnits="userSpaceOnUse">
<stop stop-color="#FF873A"/>
<stop offset="1" stop-color="#FAE926"/>
</linearGradient>
<linearGradient id="paint19_linear_1317_409" x1="194.049" y1="150.178" x2="194.333" y2="160.682" gradientUnits="userSpaceOnUse">
<stop stop-color="white" stop-opacity="0.4"/>
<stop offset="0.49" stop-color="white" stop-opacity="0"/>
</linearGradient>
<linearGradient id="paint20_linear_1317_409" x1="263.343" y1="150.178" x2="263.065" y2="157.486" gradientUnits="userSpaceOnUse">
<stop stop-color="white" stop-opacity="0.62"/>
<stop offset="0.645" stop-color="white" stop-opacity="0.31"/>
<stop offset="1" stop-color="white" stop-opacity="0"/>
</linearGradient>
<linearGradient id="paint21_linear_1317_409" x1="189.456" y1="149.06" x2="198.641" y2="207.116" gradientUnits="userSpaceOnUse">
<stop stop-color="#FF873A"/>
<stop offset="1" stop-color="#FAE926"/>
</linearGradient>
<linearGradient id="paint22_linear_1317_409" x1="194.049" y1="150.178" x2="194.333" y2="160.682" gradientUnits="userSpaceOnUse">
<stop stop-color="white" stop-opacity="0.4"/>
<stop offset="0.49" stop-color="white" stop-opacity="0"/>
</linearGradient>
<linearGradient id="paint23_linear_1317_409" x1="263.343" y1="150.178" x2="263.065" y2="157.486" gradientUnits="userSpaceOnUse">
<stop stop-color="white" stop-opacity="0.62"/>
<stop offset="0.645" stop-color="white" stop-opacity="0.31"/>
<stop offset="1" stop-color="white" stop-opacity="0"/>
</linearGradient>
<linearGradient id="paint24_linear_1317_409" x1="189.456" y1="149.06" x2="198.641" y2="207.116" gradientUnits="userSpaceOnUse">
<stop stop-color="#FF873A"/>
<stop offset="1" stop-color="#FAE926"/>
</linearGradient>
<linearGradient id="paint25_linear_1317_409" x1="194.049" y1="150.178" x2="194.333" y2="160.682" gradientUnits="userSpaceOnUse">
<stop stop-color="white" stop-opacity="0.4"/>
<stop offset="0.49" stop-color="white" stop-opacity="0"/>
</linearGradient>
<linearGradient id="paint26_linear_1317_409" x1="263.343" y1="150.178" x2="263.065" y2="157.486" gradientUnits="userSpaceOnUse">
<stop stop-color="white" stop-opacity="0.62"/>
<stop offset="0.645" stop-color="white" stop-opacity="0.31"/>
<stop offset="1" stop-color="white" stop-opacity="0"/>
</linearGradient>
<linearGradient id="paint27_linear_1317_409" x1="189.456" y1="149.06" x2="198.641" y2="207.116" gradientUnits="userSpaceOnUse">
<stop stop-color="#FF873A"/>
<stop offset="1" stop-color="#FAE926"/>
</linearGradient>
<linearGradient id="paint28_linear_1317_409" x1="194.049" y1="150.178" x2="194.333" y2="160.682" gradientUnits="userSpaceOnUse">
<stop stop-color="white" stop-opacity="0.4"/>
<stop offset="0.49" stop-color="white" stop-opacity="0"/>
</linearGradient>
<linearGradient id="paint29_linear_1317_409" x1="263.343" y1="150.178" x2="263.065" y2="157.486" gradientUnits="userSpaceOnUse">
<stop stop-color="white" stop-opacity="0.62"/>
<stop offset="0.645" stop-color="white" stop-opacity="0.31"/>
<stop offset="1" stop-color="white" stop-opacity="0"/>
</linearGradient>
<linearGradient id="paint30_linear_1317_409" x1="198.122" y1="124.284" x2="198.827" y2="141.796" gradientUnits="userSpaceOnUse">
<stop offset="0.2" stop-color="white" stop-opacity="0.62"/>
<stop offset="0.39" stop-color="white" stop-opacity="0"/>
<stop offset="0.505" stop-color="white" stop-opacity="0.62"/>
<stop offset="0.675" stop-color="white" stop-opacity="0"/>
</linearGradient>
<linearGradient id="paint31_linear_1317_409" x1="198.122" y1="124.284" x2="198.827" y2="141.796" gradientUnits="userSpaceOnUse">
<stop offset="0.2" stop-color="white" stop-opacity="0.62"/>
<stop offset="0.39" stop-color="white" stop-opacity="0"/>
<stop offset="0.505" stop-color="white" stop-opacity="0.62"/>
<stop offset="0.675" stop-color="white" stop-opacity="0"/>
</linearGradient>
<linearGradient id="paint32_linear_1317_409" x1="198.626" y1="116.903" x2="198.66" y2="119.277" gradientUnits="userSpaceOnUse">
<stop stop-color="white" stop-opacity="0.62"/>
<stop offset="1" stop-color="white" stop-opacity="0"/>
</linearGradient>
<linearGradient id="paint33_linear_1317_409" x1="210.163" y1="150.175" x2="210.163" y2="164.097" gradientUnits="userSpaceOnUse">
<stop stop-color="#FF873B"/>
<stop offset="1" stop-color="#FE9D36"/>
</linearGradient>
<linearGradient id="paint34_linear_1317_409" x1="210.163" y1="150.175" x2="210.886" y2="164.058" gradientUnits="userSpaceOnUse">
<stop stop-color="white" stop-opacity="0.62"/>
<stop offset="0.45" stop-color="white" stop-opacity="0"/>
</linearGradient>
<linearGradient id="paint35_linear_1317_409" x1="230.267" y1="138.986" x2="232.024" y2="145.359" gradientUnits="userSpaceOnUse">
<stop stop-color="white" stop-opacity="0.62"/>
<stop offset="0.56" stop-color="white" stop-opacity="0"/>
</linearGradient>
<linearGradient id="paint36_linear_1317_409" x1="247.502" y1="127.486" x2="249.836" y2="138.274" gradientUnits="userSpaceOnUse">
<stop stop-color="white" stop-opacity="0.62"/>
<stop offset="0.465" stop-color="white" stop-opacity="0"/>
</linearGradient>
<linearGradient id="paint37_linear_1317_409" x1="173.253" y1="126.99" x2="117.922" y2="124.294" gradientUnits="userSpaceOnUse">
<stop stop-color="#F9410F"/>
<stop offset="1" stop-color="#F04A16"/>
</linearGradient>
<linearGradient id="paint38_linear_1317_409" x1="146.856" y1="122.939" x2="147.001" y2="126.894" gradientUnits="userSpaceOnUse">
<stop stop-color="white" stop-opacity="0.62"/>
<stop offset="1" stop-color="white" stop-opacity="0"/>
</linearGradient>
<linearGradient id="paint39_linear_1317_409" x1="133.215" y1="111.503" x2="134.692" y2="121.835" gradientUnits="userSpaceOnUse">
<stop stop-color="#FD623E"/>
<stop offset="1" stop-color="#EF4714"/>
</linearGradient>
<linearGradient id="paint40_linear_1317_409" x1="134.498" y1="112.868" x2="134.527" y2="115.029" gradientUnits="userSpaceOnUse">
<stop stop-color="white" stop-opacity="0.62"/>
<stop offset="1" stop-color="white" stop-opacity="0"/>
</linearGradient>
<linearGradient id="paint41_linear_1317_409" x1="173.411" y1="120.943" x2="173.61" y2="122.794" gradientUnits="userSpaceOnUse">
<stop stop-color="white" stop-opacity="0.62"/>
<stop offset="1" stop-color="white" stop-opacity="0"/>
</linearGradient>
<linearGradient id="paint42_linear_1317_409" x1="164.694" y1="131.178" x2="164.749" y2="133.763" gradientUnits="userSpaceOnUse">
<stop stop-color="white" stop-opacity="0.62"/>
<stop offset="1" stop-color="white" stop-opacity="0"/>
</linearGradient>
<linearGradient id="paint43_linear_1317_409" x1="161.507" y1="121.917" x2="161.532" y2="123.556" gradientUnits="userSpaceOnUse">
<stop stop-color="white" stop-opacity="0.62"/>
<stop offset="1" stop-color="white" stop-opacity="0"/>
</linearGradient>
<linearGradient id="paint44_linear_1317_409" x1="165.523" y1="176.904" x2="165.523" y2="206.868" gradientUnits="userSpaceOnUse">
<stop stop-color="#FDB531"/>
<stop offset="1" stop-color="#FBDB2A"/>
</linearGradient>
<linearGradient id="paint45_linear_1317_409" x1="165.545" y1="176.907" x2="170.445" y2="203.044" gradientUnits="userSpaceOnUse">
<stop stop-color="white" stop-opacity="0.62"/>
<stop offset="0.335" stop-color="white" stop-opacity="0"/>
</linearGradient>
<linearGradient id="paint46_linear_1317_409" x1="134.43" y1="129.711" x2="134.43" y2="143.911" gradientUnits="userSpaceOnUse">
<stop stop-color="#F95211"/>
<stop offset="1" stop-color="#FA600F"/>
</linearGradient>
<linearGradient id="paint47_linear_1317_409" x1="134.43" y1="129.711" x2="134.496" y2="133.121" gradientUnits="userSpaceOnUse">
<stop stop-color="white" stop-opacity="0.62"/>
<stop offset="1" stop-color="white" stop-opacity="0"/>
</linearGradient>
</defs>
</svg>
