<svg width="40" height="40" viewBox="0 0 40 40" fill="none" xmlns="http://www.w3.org/2000/svg">
<rect width="40" height="40" rx="8" fill="#A9916B"/>
<path d="M10.75 31C10.75 31 9 31 9 29.25C9 27.5 10.75 22.25 19.5 22.25C28.25 22.25 30 27.5 30 29.25C30 31 28.25 31 28.25 31H10.75ZM19.5 20.5C20.8924 20.5 22.2277 19.9469 23.2123 18.9623C24.1969 17.9777 24.75 16.6424 24.75 15.25C24.75 13.8576 24.1969 12.5223 23.2123 11.5377C22.2277 10.5531 20.8924 10 19.5 10C18.1076 10 16.7723 10.5531 15.7877 11.5377C14.8031 12.5223 14.25 13.8576 14.25 15.25C14.25 16.6424 14.8031 17.9777 15.7877 18.9623C16.7723 19.9469 18.1076 20.5 19.5 20.5Z" fill="#FCF3CC"/>
</svg>
