<svg width="15" height="15" viewBox="0 0 15 15" fill="none" xmlns="http://www.w3.org/2000/svg">
<path id="Vector" fill-rule="evenodd" clip-rule="evenodd" d="M1.62442 0.820928C1.62442 0.603204 1.53885 0.394398 1.38653 0.240444C1.23421 0.0864904 1.02762 0 0.812211 0C0.596799 0 0.39021 0.0864904 0.237891 0.240444C0.085572 0.394398 3.20988e-09 0.603204 0 0.820928V14.1791C0 14.6322 0.36387 15 0.812211 15H14.0285C14.2439 15 14.4505 14.9135 14.6028 14.7596C14.7551 14.6056 14.8407 14.3968 14.8407 14.1791C14.8407 13.9613 14.7551 13.7525 14.6028 13.5986C14.4505 13.4446 14.2439 13.3581 14.0285 13.3581H1.62334L1.62442 0.820928ZM10.9887 2.49891C10.8705 2.41373 10.7366 2.35344 10.5949 2.3216C10.4532 2.28977 10.3067 2.28704 10.1639 2.31359C10.0212 2.34014 9.88518 2.39541 9.76399 2.47614C9.6428 2.55686 9.5389 2.66138 9.45847 2.78349L6.12515 7.83603L4.51806 6.21169C4.41744 6.10992 4.29798 6.02918 4.16649 5.97408C4.035 5.91897 3.89406 5.89058 3.75171 5.89053C3.60937 5.89048 3.46841 5.91877 3.33688 5.97378C3.20535 6.02879 3.08583 6.10945 2.98515 6.21114C2.88446 6.31284 2.80457 6.43359 2.75005 6.56649C2.69554 6.69939 2.66745 6.84184 2.6674 6.98571C2.66735 7.12958 2.69534 7.27206 2.74976 7.405C2.80419 7.53794 2.88399 7.65874 2.9846 7.76051L5.52628 10.3284C5.63955 10.4431 5.77661 10.5309 5.92756 10.5856C6.0785 10.6402 6.23957 10.6603 6.39914 10.6444C6.5587 10.6285 6.71278 10.577 6.85024 10.4935C6.9877 10.4101 7.10512 10.2969 7.19402 10.162L10.6389 4.93761L13.2878 6.84982C13.5216 7.01849 13.8121 7.08637 14.0954 7.03854C14.3787 6.99072 14.6316 6.83109 14.7985 6.59479C14.9654 6.35849 15.0325 6.06486 14.9852 5.77851C14.9379 5.49215 14.7799 5.23653 14.5462 5.06786L10.9887 2.49891Z" fill="#877C5C"/>
</svg>
