<svg width="18" height="18" viewBox="0 0 18 18" fill="none" xmlns="http://www.w3.org/2000/svg">
<path id="Vector" fill-rule="evenodd" clip-rule="evenodd" d="M1.94931 0.985114C1.94931 0.723845 1.84662 0.473278 1.66384 0.288533C1.48105 0.103788 1.23315 0 0.974653 0C0.716159 0 0.468252 0.103788 0.285469 0.288533C0.102686 0.473278 3.85186e-09 0.723845 0 0.985114V17.0149C0 17.5587 0.436645 18 0.974653 18H16.8342C17.0927 18 17.3406 17.8962 17.5234 17.7115C17.7062 17.5267 17.8089 17.2762 17.8089 17.0149C17.8089 16.7536 17.7062 16.503 17.5234 16.3183C17.3406 16.1336 17.0927 16.0298 16.8342 16.0298H1.94801L1.94931 0.985114ZM13.1864 2.99869C13.0446 2.89648 12.8839 2.82412 12.7139 2.78592C12.5439 2.74772 12.368 2.74445 12.1967 2.77631C12.0254 2.80816 11.8622 2.8745 11.7168 2.97137C11.5714 3.06823 11.4467 3.19366 11.3502 3.34019L7.35018 9.40324L5.42167 7.45403C5.30093 7.3319 5.15757 7.23502 4.99979 7.16889C4.842 7.10276 4.67287 7.0687 4.50206 7.06864C4.33124 7.06858 4.16209 7.10252 4.00426 7.16853C3.84642 7.23455 3.703 7.33133 3.58217 7.45337C3.46135 7.57541 3.36549 7.7203 3.30007 7.87978C3.23464 8.03926 3.20094 8.21021 3.20088 8.38285C3.20082 8.5555 3.2344 8.72647 3.29971 8.88599C3.36503 9.04552 3.46078 9.19049 3.58153 9.31261L6.63154 12.394C6.76746 12.5317 6.93193 12.6371 7.11307 12.7027C7.2942 12.7683 7.48749 12.7924 7.67897 12.7733C7.87044 12.7542 8.05533 12.6923 8.22029 12.5922C8.38525 12.4921 8.52615 12.3562 8.63283 12.1944L12.7667 5.92513L15.9453 8.21979C16.2259 8.42218 16.5745 8.50365 16.9145 8.44625C17.2544 8.38886 17.5579 8.19731 17.7582 7.91375C17.9584 7.63018 18.039 7.27783 17.9822 6.93421C17.9255 6.59058 17.7359 6.28383 17.4554 6.08144L13.1864 2.99869Z" fill="#F7CC65"/>
</svg>
