<svg width="18" height="17" viewBox="0 0 18 17" fill="none" xmlns="http://www.w3.org/2000/svg">
<path id="Vector" d="M5.44444 5.41176H12.5556M5.44444 8.94118H10.7778M14.3333 1C15.0406 1 15.7189 1.27889 16.219 1.77531C16.719 2.27173 17 2.94502 17 3.64706V10.7059C17 11.4079 16.719 12.0812 16.219 12.5776C15.7189 13.0741 15.0406 13.3529 14.3333 13.3529H9.88889L5.44444 16V13.3529H3.66667C2.95942 13.3529 2.28115 13.0741 1.78105 12.5776C1.28095 12.0812 1 11.4079 1 10.7059V3.64706C1 2.94502 1.28095 2.27173 1.78105 1.77531C2.28115 1.27889 2.95942 1 3.66667 1H14.3333Z" stroke="#877C5C" stroke-width="2" stroke-linecap="round" stroke-linejoin="round"/>
</svg>
