<svg width="21" height="20" viewBox="0 0 21 20" fill="none" xmlns="http://www.w3.org/2000/svg">
<path id="Vector" d="M6.27778 6.29412H14.7222M6.27778 10.5294H12.6111M16.8333 1C17.6732 1 18.4786 1.33466 19.0725 1.93037C19.6664 2.52607 20 3.33402 20 4.17647V12.6471C20 13.4895 19.6664 14.2975 19.0725 14.8932C18.4786 15.4889 17.6732 15.8235 16.8333 15.8235H11.5556L6.27778 19V15.8235H4.16667C3.32681 15.8235 2.52136 15.4889 1.9275 14.8932C1.33363 14.2975 1 13.4895 1 12.6471V4.17647C1 3.33402 1.33363 2.52607 1.9275 1.93037C2.52136 1.33466 3.32681 1 4.16667 1H16.8333Z" stroke="#F7CC65" stroke-width="2" stroke-linecap="round" stroke-linejoin="round"/>
</svg>
