<svg width="50" height="50" viewBox="0 0 50 50" fill="none" xmlns="http://www.w3.org/2000/svg">
<g clip-path="url(#clip0_2151_367)">
<rect width="50" height="50" rx="15" fill="url(#paint0_linear_2151_367)"/>
<mask id="path-2-outside-1_2151_367" maskUnits="userSpaceOnUse" x="13" y="11" width="24" height="28" fill="black">
<rect fill="white" x="13" y="11" width="24" height="28"/>
<path d="M28.8011 20C28.733 19.1477 28.4134 18.483 27.8423 18.0057C27.2798 17.5284 26.4233 17.2898 25.2727 17.2898C24.5398 17.2898 23.9389 17.3793 23.4702 17.5582C23.0099 17.7287 22.669 17.9631 22.4474 18.2614C22.2259 18.5597 22.1108 18.9006 22.1023 19.2841C22.0852 19.5994 22.1406 19.8849 22.2685 20.1406C22.4048 20.3878 22.6179 20.6136 22.9077 20.8182C23.1974 21.0142 23.5682 21.1932 24.0199 21.3551C24.4716 21.517 25.0085 21.6619 25.6307 21.7898L27.7784 22.25C29.2273 22.5568 30.4673 22.9616 31.4986 23.4645C32.5298 23.9673 33.3736 24.5597 34.0298 25.2415C34.6861 25.9148 35.1676 26.6733 35.4744 27.517C35.7898 28.3608 35.9517 29.2812 35.9602 30.2784C35.9517 32 35.5213 33.4574 34.669 34.6506C33.8168 35.8438 32.598 36.7514 31.0128 37.3736C29.4361 37.9957 27.5398 38.3068 25.3239 38.3068C23.0483 38.3068 21.0625 37.9702 19.3665 37.2969C17.679 36.6236 16.3665 35.5881 15.429 34.1903C14.5 32.7841 14.0313 30.9858 14.0227 28.7955H20.7727C20.8153 29.5966 21.0156 30.2699 21.3736 30.8153C21.7315 31.3608 22.2344 31.7741 22.8821 32.0554C23.5384 32.3366 24.3182 32.4773 25.2216 32.4773C25.9801 32.4773 26.6151 32.3835 27.1264 32.196C27.6378 32.0085 28.0256 31.7486 28.2898 31.4162C28.554 31.0838 28.6903 30.7045 28.6989 30.2784C28.6903 29.8778 28.5582 29.5284 28.3026 29.2301C28.0554 28.9233 27.6463 28.6506 27.0753 28.4119C26.5043 28.1648 25.733 27.9347 24.7614 27.7216L22.1534 27.1591C19.8352 26.6562 18.0071 25.8168 16.669 24.6406C15.3395 23.456 14.679 21.8409 14.6875 19.7955C14.679 18.1335 15.1222 16.6804 16.017 15.4361C16.9205 14.1832 18.169 13.2074 19.7628 12.5085C21.3651 11.8097 23.2017 11.4602 25.2727 11.4602C27.3864 11.4602 29.2145 11.8139 30.7571 12.5213C32.2997 13.2287 33.4886 14.2259 34.3239 15.5128C35.1676 16.7912 35.5938 18.2869 35.6023 20H28.8011Z"/>
</mask>
<path d="M28.8011 20C28.733 19.1477 28.4134 18.483 27.8423 18.0057C27.2798 17.5284 26.4233 17.2898 25.2727 17.2898C24.5398 17.2898 23.9389 17.3793 23.4702 17.5582C23.0099 17.7287 22.669 17.9631 22.4474 18.2614C22.2259 18.5597 22.1108 18.9006 22.1023 19.2841C22.0852 19.5994 22.1406 19.8849 22.2685 20.1406C22.4048 20.3878 22.6179 20.6136 22.9077 20.8182C23.1974 21.0142 23.5682 21.1932 24.0199 21.3551C24.4716 21.517 25.0085 21.6619 25.6307 21.7898L27.7784 22.25C29.2273 22.5568 30.4673 22.9616 31.4986 23.4645C32.5298 23.9673 33.3736 24.5597 34.0298 25.2415C34.6861 25.9148 35.1676 26.6733 35.4744 27.517C35.7898 28.3608 35.9517 29.2812 35.9602 30.2784C35.9517 32 35.5213 33.4574 34.669 34.6506C33.8168 35.8438 32.598 36.7514 31.0128 37.3736C29.4361 37.9957 27.5398 38.3068 25.3239 38.3068C23.0483 38.3068 21.0625 37.9702 19.3665 37.2969C17.679 36.6236 16.3665 35.5881 15.429 34.1903C14.5 32.7841 14.0313 30.9858 14.0227 28.7955H20.7727C20.8153 29.5966 21.0156 30.2699 21.3736 30.8153C21.7315 31.3608 22.2344 31.7741 22.8821 32.0554C23.5384 32.3366 24.3182 32.4773 25.2216 32.4773C25.9801 32.4773 26.6151 32.3835 27.1264 32.196C27.6378 32.0085 28.0256 31.7486 28.2898 31.4162C28.554 31.0838 28.6903 30.7045 28.6989 30.2784C28.6903 29.8778 28.5582 29.5284 28.3026 29.2301C28.0554 28.9233 27.6463 28.6506 27.0753 28.4119C26.5043 28.1648 25.733 27.9347 24.7614 27.7216L22.1534 27.1591C19.8352 26.6562 18.0071 25.8168 16.669 24.6406C15.3395 23.456 14.679 21.8409 14.6875 19.7955C14.679 18.1335 15.1222 16.6804 16.017 15.4361C16.9205 14.1832 18.169 13.2074 19.7628 12.5085C21.3651 11.8097 23.2017 11.4602 25.2727 11.4602C27.3864 11.4602 29.2145 11.8139 30.7571 12.5213C32.2997 13.2287 33.4886 14.2259 34.3239 15.5128C35.1676 16.7912 35.5938 18.2869 35.6023 20H28.8011Z" fill="url(#paint1_linear_2151_367)"/>
<path d="M28.8011 20C28.733 19.1477 28.4134 18.483 27.8423 18.0057C27.2798 17.5284 26.4233 17.2898 25.2727 17.2898C24.5398 17.2898 23.9389 17.3793 23.4702 17.5582C23.0099 17.7287 22.669 17.9631 22.4474 18.2614C22.2259 18.5597 22.1108 18.9006 22.1023 19.2841C22.0852 19.5994 22.1406 19.8849 22.2685 20.1406C22.4048 20.3878 22.6179 20.6136 22.9077 20.8182C23.1974 21.0142 23.5682 21.1932 24.0199 21.3551C24.4716 21.517 25.0085 21.6619 25.6307 21.7898L27.7784 22.25C29.2273 22.5568 30.4673 22.9616 31.4986 23.4645C32.5298 23.9673 33.3736 24.5597 34.0298 25.2415C34.6861 25.9148 35.1676 26.6733 35.4744 27.517C35.7898 28.3608 35.9517 29.2812 35.9602 30.2784C35.9517 32 35.5213 33.4574 34.669 34.6506C33.8168 35.8438 32.598 36.7514 31.0128 37.3736C29.4361 37.9957 27.5398 38.3068 25.3239 38.3068C23.0483 38.3068 21.0625 37.9702 19.3665 37.2969C17.679 36.6236 16.3665 35.5881 15.429 34.1903C14.5 32.7841 14.0313 30.9858 14.0227 28.7955H20.7727C20.8153 29.5966 21.0156 30.2699 21.3736 30.8153C21.7315 31.3608 22.2344 31.7741 22.8821 32.0554C23.5384 32.3366 24.3182 32.4773 25.2216 32.4773C25.9801 32.4773 26.6151 32.3835 27.1264 32.196C27.6378 32.0085 28.0256 31.7486 28.2898 31.4162C28.554 31.0838 28.6903 30.7045 28.6989 30.2784C28.6903 29.8778 28.5582 29.5284 28.3026 29.2301C28.0554 28.9233 27.6463 28.6506 27.0753 28.4119C26.5043 28.1648 25.733 27.9347 24.7614 27.7216L22.1534 27.1591C19.8352 26.6562 18.0071 25.8168 16.669 24.6406C15.3395 23.456 14.679 21.8409 14.6875 19.7955C14.679 18.1335 15.1222 16.6804 16.017 15.4361C16.9205 14.1832 18.169 13.2074 19.7628 12.5085C21.3651 11.8097 23.2017 11.4602 25.2727 11.4602C27.3864 11.4602 29.2145 11.8139 30.7571 12.5213C32.2997 13.2287 33.4886 14.2259 34.3239 15.5128C35.1676 16.7912 35.5938 18.2869 35.6023 20H28.8011Z" fill="url(#paint2_linear_2151_367)" fill-opacity="0.6"/>
<path d="M28.8011 20L28.5021 20.0239L28.5242 20.3H28.8011V20ZM27.8423 18.0057L27.6482 18.2344L27.6499 18.2359L27.8423 18.0057ZM23.4702 17.5582L23.5744 17.8396L23.5772 17.8385L23.4702 17.5582ZM22.4474 18.2614L22.2066 18.0825L22.2066 18.0825L22.4474 18.2614ZM22.1023 19.2841L22.402 19.3003L22.4022 19.2908L22.1023 19.2841ZM22.2685 20.1406L21.9999 20.2749L22.0058 20.2855L22.2685 20.1406ZM22.9077 20.8182L22.7346 21.0633L22.7396 21.0667L22.9077 20.8182ZM25.6307 21.7898L25.6935 21.4964L25.6911 21.4959L25.6307 21.7898ZM27.7784 22.25L27.7156 22.5433L27.7163 22.5435L27.7784 22.25ZM34.0298 25.2415L33.8137 25.4495L33.815 25.4509L34.0298 25.2415ZM35.4744 27.517L35.1925 27.6196L35.1934 27.6221L35.4744 27.517ZM35.9602 30.2784L36.2603 30.2799L36.2602 30.2758L35.9602 30.2784ZM34.669 34.6506L34.9132 34.8249L34.9132 34.8249L34.669 34.6506ZM31.0128 37.3736L30.9032 37.0943L30.9027 37.0945L31.0128 37.3736ZM19.3665 37.2969L19.2553 37.5755L19.2558 37.5757L19.3665 37.2969ZM15.429 34.1903L15.1787 34.3557L15.1798 34.3575L15.429 34.1903ZM14.0227 28.7955V28.4955H13.7216L13.7227 28.7966L14.0227 28.7955ZM20.7727 28.7955L21.0723 28.7795L21.0572 28.4955H20.7727V28.7955ZM21.3736 30.8153L21.1228 30.9799L21.1228 30.9799L21.3736 30.8153ZM22.8821 32.0554L22.7626 32.3306L22.7639 32.3311L22.8821 32.0554ZM27.1264 32.196L27.2297 32.4777L27.2297 32.4777L27.1264 32.196ZM28.2898 31.4162L28.5246 31.6029L28.5246 31.6029L28.2898 31.4162ZM28.6989 30.2784L28.9991 30.2844L28.9988 30.272L28.6989 30.2784ZM28.3026 29.2301L28.0688 29.4184L28.0748 29.4254L28.3026 29.2301ZM27.0753 28.4119L26.9561 28.6873L26.9596 28.6887L27.0753 28.4119ZM24.7614 27.7216L24.8256 27.4286L24.8246 27.4283L24.7614 27.7216ZM22.1534 27.1591L22.0898 27.4523L22.0902 27.4523L22.1534 27.1591ZM16.669 24.6406L16.4695 24.8646L16.471 24.866L16.669 24.6406ZM14.6875 19.7955L14.9875 19.7967L14.9875 19.7939L14.6875 19.7955ZM16.017 15.4361L15.7737 15.2606L15.7735 15.2609L16.017 15.4361ZM19.7628 12.5085L19.6428 12.2335L19.6423 12.2338L19.7628 12.5085ZM30.7571 12.5213L30.6321 12.794L30.6321 12.794L30.7571 12.5213ZM34.3239 15.5128L34.0722 15.6761L34.0735 15.678L34.3239 15.5128ZM35.6023 20V20.3H35.9038L35.9023 19.9985L35.6023 20ZM29.1002 19.9761C29.0266 19.0565 28.6769 18.3122 28.0347 17.7755L27.6499 18.2359C28.1498 18.6537 28.4393 19.2389 28.5021 20.0239L29.1002 19.9761ZM28.0364 17.7769C27.3966 17.234 26.4566 16.9898 25.2727 16.9898V17.5898C26.39 17.5898 27.1631 17.8228 27.6482 18.2344L28.0364 17.7769ZM25.2727 16.9898C24.5185 16.9898 23.878 17.0814 23.3632 17.278L23.5772 17.8385C23.9999 17.6771 24.561 17.5898 25.2727 17.5898V16.9898ZM23.366 17.2769C22.8684 17.4612 22.4724 17.7247 22.2066 18.0825L22.6883 18.4403C22.8657 18.2014 23.1515 17.9962 23.5744 17.8396L23.366 17.2769ZM22.2066 18.0825C21.9467 18.4324 21.8122 18.8339 21.8023 19.2774L22.4022 19.2908C22.4094 18.9672 22.505 18.687 22.6883 18.4403L22.2066 18.0825ZM21.8027 19.2679C21.7832 19.6296 21.8466 19.9678 22.0001 20.2748L22.5368 20.0065C22.4346 19.8021 22.3873 19.5692 22.4018 19.3003L21.8027 19.2679ZM22.0058 20.2855C22.169 20.5813 22.4171 20.8391 22.7347 21.0633L23.0807 20.5731C22.8187 20.3882 22.6407 20.1943 22.5311 19.9957L22.0058 20.2855ZM22.7396 21.0667C23.0562 21.2809 23.4514 21.47 23.9186 21.6375L24.1211 21.0727C23.685 20.9164 23.3387 20.7476 23.0758 20.5697L22.7396 21.0667ZM23.9186 21.6375C24.3872 21.8055 24.9384 21.9538 25.5703 22.0836L25.6911 21.4959C25.0786 21.3701 24.556 21.2286 24.1211 21.0727L23.9186 21.6375ZM25.5678 22.0831L27.7156 22.5433L27.8413 21.9567L25.6935 21.4964L25.5678 22.0831ZM27.7163 22.5435C29.1477 22.8466 30.3632 23.2446 31.3671 23.7341L31.6301 23.1948C30.5715 22.6787 29.3069 22.267 27.8406 21.9565L27.7163 22.5435ZM31.3671 23.7341C32.3732 24.2247 33.1864 24.7978 33.8137 25.4495L34.246 25.0334C33.5608 24.3215 32.6864 23.7099 31.6301 23.1948L31.3671 23.7341ZM33.815 25.4509C34.443 26.0952 34.9009 26.8177 35.1925 27.6196L35.7564 27.4145C35.4343 26.5289 34.9292 25.7344 34.2447 25.0321L33.815 25.4509ZM35.1934 27.6221C35.4953 28.4297 35.652 29.3151 35.6602 30.281L36.2602 30.2758C36.2514 29.2474 36.0843 28.2919 35.7554 27.412L35.1934 27.6221ZM35.6602 30.2769C35.652 31.9476 35.2352 33.3418 34.4249 34.4762L34.9132 34.8249C35.8074 33.573 36.2514 32.0524 36.2602 30.2799L35.6602 30.2769ZM34.4249 34.4762C33.6116 35.6149 32.4433 36.4899 30.9032 37.0943L31.1224 37.6528C32.7527 37.013 34.022 36.0726 34.9132 34.8249L34.4249 34.4762ZM30.9027 37.0945C29.37 37.6993 27.5131 38.0068 25.3239 38.0068V38.6068C27.5665 38.6068 29.5022 38.2922 31.1229 37.6526L30.9027 37.0945ZM25.3239 38.0068C23.0772 38.0068 21.1304 37.6744 19.4772 37.018L19.2558 37.5757C20.9946 38.266 23.0194 38.6068 25.3239 38.6068V38.0068ZM19.4777 37.0182C17.8416 36.3655 16.5792 35.3667 15.6781 34.0232L15.1798 34.3575C16.1537 35.8095 17.5163 36.8817 19.2553 37.5755L19.4777 37.0182ZM15.6793 34.025C14.7909 32.6801 14.3311 30.9435 14.3227 28.7943L13.7227 28.7966C13.7314 31.0281 14.2091 32.8881 15.1787 34.3557L15.6793 34.025ZM14.0227 29.0955H20.7727V28.4955H14.0227V29.0955ZM20.4732 28.8114C20.5179 29.6534 20.7297 30.381 21.1228 30.9799L21.6244 30.6507C21.3016 30.1588 21.1127 29.5398 21.0723 28.7795L20.4732 28.8114ZM21.1228 30.9799C21.5154 31.5783 22.0659 32.028 22.7626 32.3306L23.0016 31.7802C22.4029 31.5202 21.9476 31.1433 21.6244 30.6507L21.1228 30.9799ZM22.7639 32.3311C23.466 32.632 24.2879 32.7773 25.2216 32.7773V32.1773C24.3484 32.1773 23.6107 32.0413 23.0003 31.7797L22.7639 32.3311ZM25.2216 32.7773C26.0025 32.7773 26.6751 32.6811 27.2297 32.4777L27.0231 31.9144C26.5551 32.086 25.9577 32.1773 25.2216 32.1773V32.7773ZM27.2297 32.4777C27.7784 32.2765 28.2177 31.989 28.5246 31.6029L28.0549 31.2295C27.8335 31.5081 27.4972 31.7406 27.0231 31.9144L27.2297 32.4777ZM28.5246 31.6029C28.8299 31.2188 28.989 30.776 28.9988 30.2844L28.3989 30.2724C28.3917 30.6331 28.2781 30.9488 28.0549 31.2295L28.5246 31.6029ZM28.9988 30.272C28.9888 29.8036 28.8322 29.387 28.5303 29.0349L28.0748 29.4254C28.2843 29.6698 28.3919 29.9521 28.3989 30.2848L28.9988 30.272ZM28.5362 29.0419C28.2448 28.6801 27.7843 28.3831 27.191 28.1351L26.9596 28.6887C27.5083 28.9181 27.866 29.1665 28.0689 29.4183L28.5362 29.0419ZM27.1945 28.1366C26.5985 27.8787 25.8063 27.6436 24.8256 27.4286L24.6971 28.0146C25.6596 28.2257 26.41 28.4509 26.9561 28.6872L27.1945 28.1366ZM24.8246 27.4283L22.2167 26.8658L22.0902 27.4523L24.6981 28.0148L24.8246 27.4283ZM22.217 26.8659C19.9327 26.3704 18.1562 25.5484 16.8671 24.4153L16.471 24.866C17.858 26.0851 19.7377 26.9421 22.0898 27.4523L22.217 26.8659ZM16.8686 24.4166C15.6131 23.298 14.9793 21.7703 14.9875 19.7967L14.3875 19.7942C14.3787 21.9115 15.0658 23.614 16.4695 24.8646L16.8686 24.4166ZM14.9875 19.7939C14.9793 18.1897 15.4059 16.7997 16.2606 15.6112L15.7735 15.2609C14.8384 16.5611 14.3787 18.0773 14.3875 19.797L14.9875 19.7939ZM16.2604 15.6115C17.1286 14.4075 18.3322 13.4634 19.8833 12.7833L19.6423 12.2338C18.0058 12.9514 16.7123 13.959 15.7737 15.2606L16.2604 15.6115ZM19.8827 12.7835C21.4408 12.1039 23.2355 11.7602 25.2727 11.7602V11.1602C23.1679 11.1602 21.2893 11.5154 19.6428 12.2335L19.8827 12.7835ZM25.2727 11.7602C27.3535 11.7602 29.1371 12.1085 30.6321 12.794L30.8822 12.2486C29.2919 11.5194 27.4192 11.1602 25.2727 11.1602V11.7602ZM30.6321 12.794C32.1286 13.4803 33.2712 14.4419 34.0722 15.6761L34.5755 15.3495C33.7061 14.0098 32.4708 12.9771 30.8822 12.2486L30.6321 12.794ZM34.0735 15.678C34.8814 16.9022 35.294 18.3395 35.3023 20.0015L35.9023 19.9985C35.8935 18.2343 35.4538 16.6802 34.5742 15.3475L34.0735 15.678ZM35.6023 19.7H28.8011V20.3H35.6023V19.7Z" fill="black" mask="url(#path-2-outside-1_2151_367)"/>
</g>
<defs>
<linearGradient id="paint0_linear_2151_367" x1="25" y1="0" x2="25" y2="50" gradientUnits="userSpaceOnUse">
<stop stop-color="#93E9FF"/>
<stop offset="1" stop-color="#FFEAA7"/>
</linearGradient>
<linearGradient id="paint1_linear_2151_367" x1="25" y1="47" x2="25" y2="3" gradientUnits="userSpaceOnUse">
<stop stop-color="#FCD62C"/>
<stop offset="1" stop-color="#FF9244"/>
</linearGradient>
<linearGradient id="paint2_linear_2151_367" x1="25.0805" y1="12.8421" x2="25.0805" y2="3" gradientUnits="userSpaceOnUse">
<stop stop-color="white" stop-opacity="0.3"/>
<stop offset="1" stop-color="white"/>
</linearGradient>
<clipPath id="clip0_2151_367">
<rect width="50" height="50" fill="white"/>
</clipPath>
</defs>
</svg>
