<svg width="13" height="13" viewBox="0 0 13 13" fill="none" xmlns="http://www.w3.org/2000/svg">
<g id="Group">
<path id="Vector" fill-rule="evenodd" clip-rule="evenodd" d="M5.68776 1.08333C4.95358 1.08339 4.23006 1.25903 3.57756 1.59558C2.92507 1.93213 2.36252 2.41985 1.93685 3.01803C1.51117 3.61621 1.23472 4.30752 1.13056 5.03427C1.0264 5.76102 1.09754 6.50215 1.33806 7.19581C1.57857 7.88948 1.98148 8.51557 2.51318 9.02185C3.04487 9.52813 3.68993 9.89992 4.39454 10.1062C5.09914 10.3125 5.84286 10.3473 6.56364 10.2077C7.28443 10.0681 7.96138 9.7581 8.53801 9.30366L10.5162 11.2818C10.6183 11.3805 10.7552 11.4351 10.8972 11.4339C11.0392 11.4326 11.1751 11.3757 11.2755 11.2752C11.3759 11.1748 11.4329 11.0389 11.4341 10.8969C11.4354 10.7549 11.3808 10.6181 11.2821 10.5159L9.30393 8.53774C9.83909 7.85883 10.1723 7.04296 10.2654 6.18351C10.3586 5.32406 10.2079 4.45576 9.83055 3.67796C9.45324 2.90017 8.86457 2.24431 8.13192 1.78545C7.39927 1.32659 6.55224 1.08327 5.68776 1.08333ZM2.16693 5.6875C2.16693 4.75371 2.53787 3.85817 3.19815 3.19789C3.85844 2.53761 4.75398 2.16666 5.68776 2.16666C6.62154 2.16666 7.51708 2.53761 8.17736 3.19789C8.83765 3.85817 9.20859 4.75371 9.20859 5.6875C9.20859 6.62128 8.83765 7.51682 8.17736 8.1771C7.51708 8.83738 6.62154 9.20833 5.68776 9.20833C4.75398 9.20833 3.85844 8.83738 3.19815 8.1771C2.53787 7.51682 2.16693 6.62128 2.16693 5.6875Z" fill="#767676"/>
</g>
</svg>
